<svg width="167" height="19" viewBox="0 0 167 19" fill="none" xmlns="http://www.w3.org/2000/svg">
<path d="M31.6675 0.22821L37.5191 14.2072L43.428 0.22821H45.2065V16.033H43.887V9.12911L44.0017 2.05404L38.0354 16.033H37.0027L31.0938 2.16815L31.2085 9.12911V16.0901H29.889V0.22821H31.6675Z" fill="white"/>
<path d="M59.606 9.01502C59.606 10.4985 59.3765 11.7538 58.8602 12.8378C58.3439 13.9219 57.6554 14.7778 56.6802 15.4054C55.7623 15.976 54.6723 16.3183 53.4102 16.3183C51.5744 16.3183 50.0254 15.6336 48.878 14.3213C47.7307 13.009 47.157 11.2402 47.157 8.95796V7.3033C47.157 5.87688 47.3865 4.56456 47.9028 3.48048C48.4191 2.3964 49.1649 1.54054 50.0828 0.912913C51.058 0.285285 52.1481 0 53.4102 0C54.6723 0 55.7049 0.285285 56.6228 0.855856C57.5407 1.42643 58.2865 2.28228 58.8028 3.36637C59.3191 4.45045 59.606 5.70571 59.606 7.07508V9.01502ZM58.2291 7.24625C58.2291 5.36336 57.7702 3.82282 56.9096 2.73874C56.0491 1.65465 54.8444 1.14114 53.3528 1.14114C51.8612 1.14114 50.7138 1.65465 49.7959 2.73874C48.9354 3.82282 48.4765 5.36336 48.4765 7.3033V8.95796C48.4765 10.8408 48.9354 12.3243 49.7959 13.4084C50.6565 14.4925 51.8612 15.0631 53.3528 15.0631C54.9017 15.0631 56.0491 14.5496 56.9096 13.4655C57.7702 12.3814 58.1718 10.8979 58.1718 8.95796V7.24625H58.2291Z" fill="white"/>
<path d="M73.4318 16.033H72.1123L62.9333 2.51049V16.033H61.5565V0.22821H62.9333L72.1123 13.8078V0.22821H73.4318V16.033Z" fill="white"/>
<path d="M86.5692 1.36935H81.1192V16.0901H79.7424V1.36935H74.2923V0.22821H86.5119V1.36935H86.5692Z" fill="white"/>
<path d="M96.494 8.44443H89.0361V14.8919H97.584V16.033H87.6592V0.22821H97.5266V1.36935H89.0361V7.36034H96.494V8.44443Z" fill="white"/>
<path d="M103.493 16.033V0.22821H108.943C110.721 0.22821 112.098 0.570553 113.074 1.31229C113.991 2.05404 114.508 3.08106 114.508 4.50749C114.508 5.24923 114.336 5.87686 113.934 6.44743C113.532 7.018 112.959 7.47446 112.213 7.8168C113.074 8.04503 113.762 8.50148 114.221 9.12911C114.68 9.75674 114.909 10.5555 114.909 11.4114C114.909 12.8949 114.45 14.036 113.475 14.8348C112.5 15.6336 111.123 16.033 109.345 16.033H103.493ZM106.247 6.90389H108.943C109.803 6.90389 110.492 6.73272 110.951 6.33332C111.41 5.93392 111.697 5.4204 111.697 4.67866C111.697 3.87986 111.467 3.30929 111.008 2.96695C110.549 2.62461 109.861 2.45344 108.943 2.45344H106.247V6.90389ZM106.247 8.90088V13.8078H109.345C110.205 13.8078 110.894 13.5796 111.352 13.1802C111.869 12.7808 112.098 12.1531 112.098 11.4114C112.098 9.75674 111.238 8.95794 109.574 8.90088H106.247Z" fill="white"/>
<path d="M122.08 9.98497H118.982V16.0901H116.229V0.22821H121.851C123.687 0.22821 125.121 0.62761 126.096 1.48347C127.071 2.28226 127.588 3.48046 127.588 5.021C127.588 6.10509 127.358 6.96094 126.842 7.70269C126.326 8.44443 125.637 8.95794 124.719 9.35734L128.276 15.976V16.0901H125.293L122.08 9.98497ZM118.982 7.75974H121.851C122.769 7.75974 123.515 7.53151 124.031 7.07506C124.547 6.6186 124.834 5.99097 124.834 5.13512C124.834 4.27926 124.605 3.65163 124.088 3.19518C123.629 2.73872 122.884 2.51049 121.908 2.45344H118.982V7.75974Z" fill="white"/>
<path d="M137.685 12.3814H131.546L130.284 16.0901H127.416L133.439 0.285278H135.906L141.93 16.0901H139.061L137.685 12.3814ZM132.292 10.1561H136.881L134.587 3.59459L132.292 10.1561Z" fill="white"/>
<path d="M146.921 12.6096L150.937 0.22821H153.977L148.24 16.033H145.544L139.865 0.22821H142.905L146.921 12.6096Z" fill="white"/>
<path d="M167 8.55856C167 10.0991 166.713 11.4685 166.197 12.6667C165.681 13.8649 164.877 14.7207 163.902 15.3483C162.927 15.976 161.722 16.2613 160.46 16.2613C159.198 16.2613 157.993 15.976 157.018 15.3483C155.985 14.7207 155.239 13.8078 154.666 12.6667C154.092 11.5255 153.863 10.1562 153.805 8.67267V7.75976C153.805 6.21922 154.092 4.84985 154.608 3.65165C155.182 2.45345 155.928 1.54054 156.96 0.912913C157.936 0.285285 159.141 0 160.403 0C161.722 0 162.869 0.285285 163.845 0.912913C164.82 1.54054 165.623 2.3964 166.139 3.59459C166.713 4.73574 166.943 6.1051 166.943 7.64565V8.55856H167ZM164.189 7.7027C164.189 5.93393 163.845 4.62162 163.214 3.65165C162.525 2.73874 161.607 2.22523 160.403 2.22523C159.198 2.22523 158.28 2.68168 157.592 3.59459C156.903 4.50751 156.559 5.81982 156.559 7.53153V8.55856C156.559 10.2703 156.903 11.6396 157.592 12.6096C158.28 13.5796 159.198 14.036 160.403 14.036C161.607 14.036 162.583 13.5796 163.214 12.6667C163.845 11.7538 164.189 10.3844 164.189 8.61562V7.7027Z" fill="white"/>
<path d="M11.359 0.0579834H2.06527C0.688423 0.0579834 -1.20474 1.14207 1.03263 2.16909L11.359 7.19012C11.7032 5.25018 12.3342 2.62555 11.359 0.0579834Z" fill="white"/>
<path d="M24.0948 0.0570679H11.8179C11.8179 0.0570679 13.08 2.79581 12.449 7.75977C12.449 7.93094 12.3916 8.04506 12.3916 8.21623C12.3916 8.3874 12.3342 8.55857 12.3342 8.67268C11.99 10.7838 11.359 13.2372 10.1542 15.976C10.1542 15.976 10.1542 15.976 10.2116 15.976C9.35108 18.5436 10.9 19.9129 12.3342 18.2583L25.8159 2.28229C27.4796 0.342353 25.7585 0.0570679 24.0948 0.0570679Z" fill="white"/>
</svg>
