<svg id="Camada_1" data-name="Camada 1" xmlns="http://www.w3.org/2000/svg" viewBox="0 0 200 72.1"><defs><style>.cls-1{fill:#70706f;}.cls-2{fill:#fcfcfc;}</style></defs><path class="cls-1" d="M15.55,37.31l2.73,6.92H17.23l-.77-2.1H13.52l-.77,2.1h-.91l2.66-6.92m1.68,4-1.12-3.21h0l-1.19,3.21Z"/><path class="cls-1" d="M23.32,38.22a2.36,2.36,0,0,0-1.19-.35,1.54,1.54,0,0,0-.56.07.64.64,0,0,0-.49.21.84.84,0,0,0-.35.35,1.32,1.32,0,0,0-.14.56.61.61,0,0,0,.21.48,1.26,1.26,0,0,0,.49.35l.7.21.77.21.84.21a2.19,2.19,0,0,1,.7.35,1.89,1.89,0,0,1,.49.56,1.86,1.86,0,0,1,.21.84,1.41,1.41,0,0,1-.28.91,1.37,1.37,0,0,1-.63.63,4.28,4.28,0,0,1-.84.35,4.13,4.13,0,0,1-1,.14,6.13,6.13,0,0,1-1.12-.14A2.22,2.22,0,0,1,19.61,43a2.9,2.9,0,0,1-.21-1.12h.84a3,3,0,0,0,.14.77,3,3,0,0,0,.42.49,2.49,2.49,0,0,0,.63.28,2.62,2.62,0,0,0,.77.07,1.94,1.94,0,0,0,.63-.07.79.79,0,0,0,.56-.21,1.19,1.19,0,0,0,.42-.42,1,1,0,0,0,.14-.63.79.79,0,0,0-.21-.56,1.26,1.26,0,0,0-.49-.35l-.7-.21-.77-.21-.84-.21a2.19,2.19,0,0,1-.7-.35,1.64,1.64,0,0,1-.49-.49,1.38,1.38,0,0,1-.21-.76,1.94,1.94,0,0,1,.21-.91,1.65,1.65,0,0,1,.56-.63,2.59,2.59,0,0,1,.77-.35,4.31,4.31,0,0,1,1.89,0,1.67,1.67,0,0,1,.77.42,2.74,2.74,0,0,1,.56.7,2.24,2.24,0,0,1,.21,1H23.6c.28-.35.07-.7-.28-1"/><path class="cls-1" d="M30.53,38.22a2.36,2.36,0,0,0-1.19-.35,1.36,1.36,0,0,0-.56.07.64.64,0,0,0-.49.21.84.84,0,0,0-.35.35,1.54,1.54,0,0,0-.07.56.61.61,0,0,0,.21.48,1.26,1.26,0,0,0,.49.35l.7.21.84.21.84.21a2.19,2.19,0,0,1,.7.35,1.89,1.89,0,0,1,.49.56,1.86,1.86,0,0,1,.21.84,1.94,1.94,0,0,1-.21.91,1.37,1.37,0,0,1-.63.63,4.28,4.28,0,0,1-.84.35,4.13,4.13,0,0,1-1,.14,6.13,6.13,0,0,1-1.12-.14A2.22,2.22,0,0,1,27,43a2.81,2.81,0,0,1-.21-1h.84a3,3,0,0,0,.14.77,3,3,0,0,0,.42.49,2.49,2.49,0,0,0,.63.28,2.87,2.87,0,0,0,.77.07,1.94,1.94,0,0,0,.63-.07.79.79,0,0,0,.56-.21,1.19,1.19,0,0,0,.42-.42,1,1,0,0,0,.14-.63.79.79,0,0,0-.21-.56,1.26,1.26,0,0,0-.49-.35l-.7-.21-.84-.21-.84-.21a2.19,2.19,0,0,1-.7-.35,1.64,1.64,0,0,1-.49-.49,1.4,1.4,0,0,1-.21-.76,1.86,1.86,0,0,1,.77-1.54,2.59,2.59,0,0,1,.77-.35,3.26,3.26,0,0,1,1.89,0,1.67,1.67,0,0,1,.77.42,2.74,2.74,0,0,1,.56.7,2.24,2.24,0,0,1,.21,1H31a.94.94,0,0,0-.42-1.05"/><polyline class="cls-1" points="39.06 37.3 39.06 38.08 35.22 38.08 35.22 40.24 38.85 40.24 38.85 41.02 35.22 41.02 35.22 43.39 39.13 43.39 39.13 44.16 34.31 44.16 34.31 37.3"/><polyline class="cls-1" points="40.47 38.08 40.47 37.3 45.99 37.3 45.99 38.08 43.68 38.08 43.68 44.16 42.77 44.16 42.77 38.08"/><polyline class="cls-1" points="52.64 37.3 54.81 43.05 57.05 37.3 58.24 37.3 58.24 44.16 57.4 44.16 57.4 38.42 57.4 38.42 55.23 44.16 54.46 44.16 52.29 38.42 52.29 38.42 52.29 44.16 51.38 44.16 51.38 37.3"/><path class="cls-1" d="M63.63,37.31l2.73,6.92h-1l-.77-2.1H61.6l-.77,2.1h-.91l2.66-6.92m1.75,4-1.19-3.21h0L62,41.29Z"/><polyline class="cls-1" points="68.95 37.3 72.59 42.91 72.59 42.91 72.59 37.3 73.5 37.3 73.5 44.16 72.52 44.16 68.88 38.63 68.88 38.63 68.88 44.16 67.97 44.16 67.97 37.3"/><path class="cls-1" d="M78.82,37.31l2.73,6.92h-1l-.77-2.1H76.86l-.77,2.1h-.91l2.66-6.92m1.68,4L78.4,38.08h0l-1.19,3.21Z"/><path class="cls-1" d="M87.36,44.09a3.56,3.56,0,0,1-1.19.21,3.13,3.13,0,0,1-1.4-.28,2.92,2.92,0,0,1-1-.77,3.55,3.55,0,0,1-.63-1.12,4.08,4.08,0,0,1-.21-1.33,4.51,4.51,0,0,1,.21-1.4,4,4,0,0,1,.63-1.18,3.1,3.1,0,0,1,1-.84,3.13,3.13,0,0,1,1.4-.28,5.4,5.4,0,0,1,1,.14,2.17,2.17,0,0,1,.91.42,2,2,0,0,1,.63.7,3.12,3.12,0,0,1,.35,1H88.2a2.13,2.13,0,0,0-.28-.69,1.64,1.64,0,0,0-.49-.49,2.49,2.49,0,0,0-.63-.28,2.38,2.38,0,0,0-.7-.07,2.32,2.32,0,0,0-1.82.91,2.61,2.61,0,0,0-.42.9,4,4,0,0,0,0,2.1,2.17,2.17,0,0,0,.42.91,1.71,1.71,0,0,0,.77.63,2.81,2.81,0,0,0,1,.21,2.47,2.47,0,0,0,1-.21,2.51,2.51,0,0,0,.7-.49,1.45,1.45,0,0,0,.42-.7,3.55,3.55,0,0,0,.14-.91H86.1v-.77h3v3.64h-.56l-.21-.84a1.88,1.88,0,0,1-1,.84"/><polyline class="cls-1" points="96.25 37.3 96.25 38.08 92.4 38.08 92.4 40.24 95.97 40.24 95.97 41.02 92.4 41.02 92.4 43.39 96.25 43.39 96.25 44.16 91.49 44.16 91.49 37.3"/><polyline class="cls-1" points="99.61 37.3 101.78 43.05 104.02 37.3 105.28 37.3 105.28 44.16 104.37 44.16 104.37 38.42 104.37 38.42 102.2 44.16 101.43 44.16 99.26 38.42 99.26 38.42 99.26 44.16 98.35 44.16 98.35 37.3"/><polyline class="cls-1" points="112.48 37.3 112.48 38.08 108.64 38.08 108.64 40.24 112.28 40.24 112.28 41.02 108.64 41.02 108.64 43.39 112.56 43.39 112.56 44.16 107.73 44.16 107.73 37.3"/><polyline class="cls-1" points="115.56 37.3 119.2 42.91 119.28 42.91 119.28 37.3 120.11 37.3 120.11 44.16 119.14 44.16 115.5 38.63 115.5 38.63 115.5 44.16 114.58 44.16 114.58 37.3"/><polyline class="cls-1" points="121.86 38.08 121.86 37.3 127.32 37.3 127.32 38.08 125.08 38.08 125.08 44.16 124.1 44.16 124.1 38.08"/><polyline class="cls-2" points="34.66 3.01 34.66 25.55 42.35 25.55 42.35 29.26 30.67 29.26 30.67 3.01"/><path class="cls-2" d="M63,22.89H51.8l-2.94,6.37H44.59L57.54,1.4,70.07,29.26H65.73M61.39,19.18l-3.92-9-4.06,9Z"/><path class="cls-2" d="M88.2,6.93,85,8.82a4.94,4.94,0,0,0-1.75-2,3.87,3.87,0,0,0-2.17-.56,4.28,4.28,0,0,0-2.73.91,3,3,0,0,0-1.12,2.31c0,1.26,1,2.31,2.87,3.08l2.59,1.05a11.36,11.36,0,0,1,4.69,3.15,6.9,6.9,0,0,1,1.47,4.62,8.14,8.14,0,0,1-8.4,8.33,8,8,0,0,1-5.67-2.1A9.43,9.43,0,0,1,72,21.91L76,21a6.66,6.66,0,0,0,1,3.22,4.54,4.54,0,0,0,6.37.7c.07-.07.21-.14.28-.28a4.39,4.39,0,0,0,1.26-3.15,4.51,4.51,0,0,0-.21-1.4A4.1,4.1,0,0,0,84,18.9a4.06,4.06,0,0,0-1.19-1,9.41,9.41,0,0,0-1.68-.84l-2.52-1c-3.57-1.54-5.39-3.71-5.39-6.65a6.27,6.27,0,0,1,2.24-5,8.61,8.61,0,0,1,5.6-2A8.42,8.42,0,0,1,88.2,6.93"/><polyline class="cls-2" points="97.65 13.51 107.87 3.01 113.11 3.01 101.29 14.91 113.19 29.26 107.87 29.26 98.42 17.57 97.65 18.41 97.65 29.26 93.66 29.26 93.66 3.01 97.65 3.01"/><path class="cls-2" d="M132.15,22.89H120.88l-2.94,6.37h-4.26l13-27.86,12.53,27.86h-4.34m-4.34-10.08-3.92-9-4.06,9Z"/><path class="cls-2" d="M14.92,1.4,1.9,29.26H27.38M7.92,25.48l2.87-6.3h0l4.06-9,3.85,9h0l1.61,3.71h0l1.12,2.59Z"/></svg>