<svg id="Camada_1" data-name="Camada 1" xmlns="http://www.w3.org/2000/svg" viewBox="0 0 200 72.1"><defs><style>.cls-1{fill:#e5172c;}.cls-2{fill:#fff;}</style></defs><path class="cls-1" d="M8.68,38.25h-3c-.14,0-.27-.2-.34-.34a38.43,38.43,0,0,1-2.72-8,46.7,46.7,0,0,1-1-12.21A41.67,41.67,0,0,1,5.29,1.26.6.6,0,0,1,6,.86c.88.06,1.83,0,2.71,0A67.33,67.33,0,0,0,8.68,38.25Z"/><path class="cls-1" d="M125.62,38.25a67.12,67.12,0,0,0,0-37.33h3a.55.55,0,0,1,.28.28,35.73,35.73,0,0,1,2.64,7.87,47.13,47.13,0,0,1,1,13.1A40.63,40.63,0,0,1,129,37.91a.51.51,0,0,1-.55.34Z"/><path class="cls-2" d="M70.71,27.39H69.43V12.6a1.4,1.4,0,0,1,1.49-1.43h.2a2.69,2.69,0,0,1,2.11,1.16l2.24,3.19L83.2,26.31a2.63,2.63,0,0,0,.61.54c.34.2.55,0,.61-.41V11.58h1.29V25.9c0,.68,0,1.36-.74,1.7a2.33,2.33,0,0,1-2.31-.21,5.23,5.23,0,0,1-.88-.88c-3.33-4.61-6.59-9.23-9.91-13.84a2.61,2.61,0,0,0-.68-.55c-.34-.13-.54,0-.61.41V26.85A.76.76,0,0,1,70.71,27.39Z"/><path class="cls-2" d="M19.61,23H20.9v1.09a2.16,2.16,0,0,0,.75,1.63,4.77,4.77,0,0,0,2.51.95,24,24,0,0,0,5.36,0,4.49,4.49,0,0,0,2.24-.82,3,3,0,0,0,1.15-2.92,2.15,2.15,0,0,0-1-1.29A9.17,9.17,0,0,0,29,20.33c-2.1-.61-4.14-1.15-6.24-1.76a6.27,6.27,0,0,1-2.65-1.43,2.57,2.57,0,0,1,.27-4.27A6.5,6.5,0,0,1,24,11.65a22.12,22.12,0,0,1,5.57-.14,7.12,7.12,0,0,1,2.78.88c1.43.82,1.83,2.11,1.83,3.74H32.84c-.06-.41-.06-.82-.13-1.22a2.68,2.68,0,0,0-2-2.31,11.54,11.54,0,0,0-4.61-.34c-1.09.13-2.17.27-3.26.47a3.05,3.05,0,0,0-1.09.48,2.24,2.24,0,0,0-1,3,1.93,1.93,0,0,0,.67.82,5.48,5.48,0,0,0,1.9,1l7.13,2a5.72,5.72,0,0,1,2.85,1.56,2.88,2.88,0,0,1-.47,4.62A7,7,0,0,1,29,27.53c-1.76.07-3.53.07-5.29,0a6.13,6.13,0,0,1-2.17-.61A3.61,3.61,0,0,1,19.61,23Z"/><path class="cls-2" d="M43.91,11.38h1.22V21.49a4.86,4.86,0,0,0,3.73,5.22,8.79,8.79,0,0,0,7.06-.54,4.16,4.16,0,0,0,2.51-4.07c-.07-3.39,0-6.79,0-10.18v-.54h1.29V21a11.28,11.28,0,0,1-.07,2.17,4.87,4.87,0,0,1-2.92,3.66,11.13,11.13,0,0,1-10.24-.27,4.71,4.71,0,0,1-2.58-3.39,8,8,0,0,1-.07-1.29v-10Z"/><path class="cls-2" d="M117.27,15.38a8.51,8.51,0,0,0-4.54-3.26,17.17,17.17,0,0,0-8.08-.74,11.71,11.71,0,0,0-5.77,2,7.32,7.32,0,0,0-3.26,7.54,6.44,6.44,0,0,0,2.79,4.21,15,15,0,0,0,8.89,2.78c.47-.07,1.15-.07,1.76-.14a13,13,0,0,0,6.92-3A7,7,0,0,0,117.27,15.38Zm-5.56,10.93a17.73,17.73,0,0,1-5,.74,13.62,13.62,0,0,1-6.31-1.42,7.1,7.1,0,0,1-2.92-9.37,6.56,6.56,0,0,1,3.12-2.92,15.13,15.13,0,0,1,12.36,0,6.11,6.11,0,0,1,3.8,4.75A7.28,7.28,0,0,1,111.71,26.31Z"/></svg>