<svg id="Camada_1" data-name="Camada 1" xmlns="http://www.w3.org/2000/svg" viewBox="0 0 200 72.12"><defs><style>.cls-1{fill:#fff;}.cls-2{fill:#2a5aa6;}.cls-3{fill:#829090;}.cls-4{fill:#3ca06e;}.cls-5{fill:#a13e5b;}.cls-6{fill:#768282;}.cls-7{fill:#c7a046;}.cls-8{fill:#6d7978;}.cls-9{fill:#667170;}.cls-10{fill:#b6734f;}.cls-11{fill:#30858c;}.cls-12{fill:#83a15b;}.cls-13{fill:#684983;}.cls-14{fill:#baa049;}.cls-15{fill:#81263f;}.cls-16{fill:#28844f;}</style></defs><path class="cls-1" d="M3.69,71.43V-.69h193V71.43ZM145.54,46.3a.07.07,0,0,0,.07.07.41.41,0,0,0,.07.11,6.74,6.74,0,0,0,2.6,1.74,10.15,10.15,0,0,0,5.48.51,10.6,10.6,0,0,0,6.87-4,12.91,12.91,0,0,0,2.68-5.78c.11-.62.3-1.23.36-1.86a14.52,14.52,0,0,0-.06-4.11,7.56,7.56,0,0,0-.42-1.87A7.47,7.47,0,0,0,158,26a11.32,11.32,0,0,0-12.38,4.78,15,15,0,0,0-2.32,7.68,13.42,13.42,0,0,0,.3,3.84c0,.22,0,.31-.22.38s-.62.25-.94.37a25.12,25.12,0,0,1-6,1.75,9,9,0,0,1-2.88,0,4,4,0,0,1-2.95-2,9.79,9.79,0,0,1-.66-1.76,14,14,0,0,1-.16-2.05,17.47,17.47,0,0,1,.23-2.49,11.3,11.3,0,0,1,1.41-3.89,5.88,5.88,0,0,1,5.55-3.05,11.54,11.54,0,0,1,3,.55c.88.28,1.75.59,2.62.88.29.1.3.1.38-.17.32-1.11.64-2.22,1-3.32.06-.22,0-.29-.19-.35-.34-.11-.66-.25-1-.36a17,17,0,0,0-7-1.12,10.49,10.49,0,0,0-4.27,1.25,11.44,11.44,0,0,0-5.24,6.15,16.46,16.46,0,0,0-1,8.45,5.52,5.52,0,0,0,.43,1.64,7.66,7.66,0,0,0,4.34,5,10.47,10.47,0,0,0,5.34.66,3.54,3.54,0,0,0,1.12-.17l.05,0c.08.08.16,0,.23,0a.75.75,0,0,0,.36-.05c.06,0,.11,0,.16,0a.5.5,0,0,0,.27,0s.08,0,.1,0l.25,0a.17.17,0,0,0,.18-.05l.17,0a.19.19,0,0,0,.19-.06.47.47,0,0,0,.26-.05s.07,0,.09,0l.17,0a.16.16,0,0,0,.17-.06,5.54,5.54,0,0,0,1.06-.29.16.16,0,0,0,.16-.06l.1,0a.18.18,0,0,0,.17-.07l.26-.06a40.18,40.18,0,0,0,4.23-1.64h.08l.31.31s0,.06.05.06Zm23.9-6.41a.76.76,0,0,0,.08-.33l.48-3.51c.21-1.56.43-3.12.64-4.68a1.57,1.57,0,0,0,.05-.3c0-.35.18-.51.53-.58a9.62,9.62,0,0,0,1.38-.35l.27,0a.17.17,0,0,0,.17,0l.27,0a.3.3,0,0,0,.26-.06l.35,0a.5.5,0,0,0,.36-.06h1.41a4.17,4.17,0,0,1,1.16.17,2.63,2.63,0,0,1,2,2.54,12.86,12.86,0,0,1-.14,2.48c-.05.36-.11.73-.16,1.09-.23,1.6-.45,3.21-.68,4.82l-.66,4.77c-.13.93-.26,1.85-.38,2.78-.05.33,0,.34.3.34h3.78c.37,0,.38,0,.44-.36l.42-3c.25-1.78.51-3.56.76-5.34s.51-3.61.76-5.42a10.7,10.7,0,0,0,.18-2.18,6.57,6.57,0,0,0-.78-3.59,5,5,0,0,0-2.8-2.39.16.16,0,0,0-.16-.07.72.72,0,0,0-.35-.11.19.19,0,0,0-.18-.07h-.1l-.19-.09a15.11,15.11,0,0,0-5.28-.13,27.58,27.58,0,0,0-3.83.75.42.42,0,0,1-.52-.15,5,5,0,0,0-1.87-1.48A9.51,9.51,0,0,0,163,24.4c-.34,0-.35,0-.34.4,0,.71,0,1.43,0,2.14,0,.24.11.29.32.31a2.78,2.78,0,0,1,2.06,1.11,3.87,3.87,0,0,1,.63,1.29,7.46,7.46,0,0,1,.21,2.82c0,.48-.1,1-.14,1.44s-.17,1-.24,1.51c-.23,1.6-.46,3.2-.67,4.81-.1.74-.24,1.47-.28,2.21-.05.29-.09.58-.14.87q-.37,2.64-.74,5.29c0,.07-.05.17.07.26H168c.23,0,.27-.13.29-.3.06-.48.13-1,.19-1.43.23-1.62.47-3.24.68-4.86C169.24,41.49,169.39,40.7,169.44,39.89ZM51.53,6.07a.21.21,0,0,0-.2-.07l-.07,0a30.58,30.58,0,0,0-8-1.53,31,31,0,0,0-4.91.08,9.44,9.44,0,0,0-1.77.25,2.68,2.68,0,0,0-.4,0c-1,.18-2,.39-3,.65A31.62,31.62,0,0,0,11.44,25.58a12.48,12.48,0,0,0-.63,2.08.6.6,0,0,0-.06.11,29.54,29.54,0,0,0-1,6.73.18.18,0,0,0,0,.2,19.83,19.83,0,0,0,0,2s0,0,0,.07V37a1.05,1.05,0,0,0,.05.61,11.3,11.3,0,0,0,.12,1.84,12.67,12.67,0,0,0,.32,2c0,.14,0,.29.09.4h0c0,.13,0,.28.1.39h0a4,4,0,0,0,.22,1.2,31.64,31.64,0,0,0,20.3,22.32,12.42,12.42,0,0,0,2.18.64h0s.05,0,.1,0a28.64,28.64,0,0,0,4.41.86,32.26,32.26,0,0,0,6.29.12A5.77,5.77,0,0,0,45,67.29a.69.69,0,0,0,.47-.07h.14a10.73,10.73,0,0,0,2.1-.36,4.21,4.21,0,0,0,.86-.16A31.67,31.67,0,0,0,70,49.25,20.19,20.19,0,0,0,71,46.65l0-.07a30.36,30.36,0,0,0,1.79-8.77,30.83,30.83,0,0,0-.06-4.61,14.85,14.85,0,0,0-.26-2,9.91,9.91,0,0,0-.3-1.81A31.42,31.42,0,0,0,59.52,10.12a18.5,18.5,0,0,0-4.11-2.38c-.33-.13-.57-.39-.9-.52s-.89-.39-1.34-.56a9.73,9.73,0,0,0-1.64-.59Zm134.9,25.74c-.36,2.58-.73,5.15-1.1,7.73-.42,3-.85,6-1.27,9-.05.33-.05.34.3.34h4.09c.35,0,.35,0,.4-.36.1-.68.18-1.36.28-2l.66-4.73q.36-2.67.74-5.34c.23-1.61.45-3.22.67-4.82.11-.77.2-1.54.3-2.31a1.83,1.83,0,0,0,.06-.25c.19-1.32.37-2.64.55-4,0-.08,0-.18,0-.24l-.08,0h-4.31c-.23,0-.29.09-.32.3-.18,1.39-.39,2.78-.59,4.17C186.65,30.1,186.55,31,186.43,31.81Zm-64.11,3.87a6,6,0,0,0,.18-1.12c.28-2.07.57-4.13.85-6.2s.54-4.12.82-6.17.53-3.91.79-5.86c0-.32,0-.32-.26-.32-1.32,0-2.64,0-4,0-.34,0-.34,0-.38.32-.12,1-.25,1.91-.38,2.87-.19,1.43-.39,2.86-.58,4.3s-.37,2.81-.56,4.21-.39,2.92-.59,4.39-.4,2.86-.58,4.29a15.46,15.46,0,0,0-.22,1.92.76.76,0,0,0-.06.16c-.11.85-.25,1.71-.33,2.56a9.26,9.26,0,0,0,.17,3.4,5.34,5.34,0,0,0,3.17,3.73,10,10,0,0,0,4.25.7c.22,0,.21-.14.21-.29,0-1.13,0-2.25,0-3.38,0-.25-.11-.33-.33-.34a4.83,4.83,0,0,1-1.07-.21,2.87,2.87,0,0,1-1.78-1.86c0-.52-.11-1-.07-1.53.09-1,.25-2,.37-3S122.27,36.56,122.32,35.68ZM95.83,40.09a10.82,10.82,0,0,0,.7,3.55A6.71,6.71,0,0,0,101,47.89a11.85,11.85,0,0,0,5.26.3c1-.15,2-.36,2.94-.55a4.27,4.27,0,0,1,3.29.5c.33.22.69.39,1,.58s.32.16.5-.14l1.59-2.53c.18-.3.25-.27-.1-.5-.52-.33-1-.67-1.56-1a.47.47,0,0,1-.27-.57,2,2,0,0,0,0-.26c.14-.89.27-1.79.4-2.69l.66-4.42c.25-1.65.49-3.3.74-4.94s.45-3,.67-4.51c.1-.7.21-1.39.3-2.09,0-.29,0-.3-.26-.31h-3.92c-.22,0-.3.08-.32.3,0,.43-.11.87-.16,1.3,0,.2-.11.3-.32.24l-.17,0a17.39,17.39,0,0,0-5.61-.49,10.31,10.31,0,0,0-4.15,1.35,11.13,11.13,0,0,0-4.69,5.63A16.62,16.62,0,0,0,95.83,40.09ZM94.16,29.43c1,0,1.9,0,2.85,0,.24,0,.36-.08.37-.31l0-.22c.11-.88.22-1.77.34-2.65.06-.43,0-.44-.39-.44H91.73c-.17,0-.24-.07-.22-.24,0-.32.07-.64.11-1a8.55,8.55,0,0,1,.53-2.34,3,3,0,0,1,2-1.85,6,6,0,0,1,2.19-.08,16.93,16.93,0,0,1,2.32.44c.3.08.32.07.4-.22s.15-.6.22-.9l.54-2.08c.07-.29.06-.31-.23-.39l-1-.28a11.94,11.94,0,0,0-5.35-.29,6.59,6.59,0,0,0-4.36,2.85A9.81,9.81,0,0,0,87.5,23c-.15.78-.25,1.56-.38,2.34-.07.47-.07.48-.54.48H84.29c-.42,0-.42,0-.48.43-.12.93-.23,1.86-.35,2.78,0,.38,0,.4.36.4h2.41c.29,0,.31,0,.28.3-.15,1.07-.31,2.14-.46,3.21-.22,1.57-.45,3.13-.67,4.69-.19,1.33-.37,2.67-.56,4-.22,1.58-.44,3.15-.67,4.73-.14,1-.22,1.92-.45,2.86a3.61,3.61,0,0,1-3.5,3.13c-.3,0-.31.2-.35.4-.14.93-.28,1.85-.43,2.78,0,.33,0,.35.3.35a10.22,10.22,0,0,0,2.9-.42,7.34,7.34,0,0,0,3.76-2.38,8.54,8.54,0,0,0,1.8-3.95c.21-1.06.32-2.14.47-3.21.28-2,.57-4,.85-6q.38-2.67.73-5.34c.23-1.6.46-3.21.68-4.82.06-.37,0-.38.43-.38Zm98.71-10.74a.29.29,0,0,0-.24-.07H190.3a2.32,2.32,0,0,0-2.29,2c-.13.88-.24,1.77-.36,2.65,0,.34,0,.35.31.35h2.9c.35,0,.71,0,1.06,0s.32-.07.33-.29a1.52,1.52,0,0,1,0-.21c.11-.84.23-1.68.34-2.52C192.71,20,192.79,19.32,192.87,18.69Z"/><path class="cls-2" d="M10.81,27.66a12.48,12.48,0,0,1,.63-2.08A31.62,31.62,0,0,1,33.16,5.42c1-.26,2-.47,3-.65a2.68,2.68,0,0,1,.4,0c.26.09.42.33.69.43.77.27,1.5.64,2.24,1,.9.43,1.76.93,2.63,1.41.52.29,1,.62,1.53.93.11.07.23.13.23.29L42.35,9a25.14,25.14,0,0,0-4.62,1A27.21,27.21,0,0,0,24.8,18.52c-.08.1-.19.19-.18.34a5.89,5.89,0,0,0-.42.45,27,27,0,0,0-5.72,16.05,26.08,26.08,0,0,0,.45,5.5A27.12,27.12,0,0,0,24,52.31c.08.11.21.21.19.37l-.28-.2a28.08,28.08,0,0,1-2.78-2.67,27.11,27.11,0,0,1-5.26-8.52c-.38-1-.7-2-1-3.06a.74.74,0,0,0,0-.39,26.67,26.67,0,0,1-.72-5.1,25.85,25.85,0,0,1,.12-4A28.84,28.84,0,0,1,15,24.5c0-.17.09-.33.12-.5s-.1-.23-.22-.14a2.85,2.85,0,0,0-.26.23c-.3.28-.58.57-.9.84a12.26,12.26,0,0,0-1.48,1.49c-.37.45-.81.84-1.22,1.26C11,27.76,10.88,27.77,10.81,27.66Z"/><path class="cls-3" d="M95.83,40.09a16.62,16.62,0,0,1,1.07-7,11.13,11.13,0,0,1,4.69-5.63,10.31,10.31,0,0,1,4.15-1.35,17.39,17.39,0,0,1,5.61.49l.17,0c.21.06.29,0,.32-.24,0-.43.12-.87.16-1.3,0-.22.1-.3.32-.3h3.92c.28,0,.3,0,.26.31-.09.7-.2,1.39-.3,2.09-.22,1.5-.45,3-.67,4.51s-.49,3.29-.74,4.94l-.66,4.42c-.13.9-.26,1.8-.4,2.69a2,2,0,0,1,0,.26.47.47,0,0,0,.27.57c.53.31,1,.65,1.56,1,.35.23.28.2.1.5L114,48.58c-.18.3-.19.3-.5.14s-.71-.36-1-.58a4.27,4.27,0,0,0-3.29-.5c-1,.19-2,.4-2.94.55a11.85,11.85,0,0,1-5.26-.3,6.71,6.71,0,0,1-4.47-4.25A10.82,10.82,0,0,1,95.83,40.09Zm11.72-10.32a5.15,5.15,0,0,0-1,0,5.38,5.38,0,0,0-3,1.14,7.57,7.57,0,0,0-2.36,3.28,13.15,13.15,0,0,0-.85,5.72,6.48,6.48,0,0,0,.75,2.78,3.71,3.71,0,0,0,2.47,1.88,8.73,8.73,0,0,0,3.1,0c.71-.09,1.41-.25,2.12-.38.43-.08.43-.08.5-.52.23-1.58.46-3.15.7-4.73.41-2.76.81-5.52,1.22-8.28,0-.32,0-.36-.27-.43A18.24,18.24,0,0,0,107.55,29.77Z"/><path class="cls-4" d="M14.85,38.23c.31,1,.63,2.06,1,3.06a27.11,27.11,0,0,0,5.26,8.52,28.08,28.08,0,0,0,2.78,2.67l.28.21.59.45a27.28,27.28,0,0,0,25.11,4.22c.92-.3,1.8-.69,2.7-1a.56.56,0,0,1,0,.08,27.9,27.9,0,0,1-7.42,4.08,24,24,0,0,1-3.24.93,29.13,29.13,0,0,1-3.49.55c-.68.07-1.36.09-2,.14A24.12,24.12,0,0,1,33.28,62a21.47,21.47,0,0,1-2.77-.39,25.69,25.69,0,0,1-4.11-1.18,27.49,27.49,0,0,1-6.93-3.8c-.06,0-.12-.09-.19,0s.29.3.45.44a26.79,26.79,0,0,0,4,2.73,26.49,26.49,0,0,0,3.42,1.58,6.3,6.3,0,0,1,1.3.52c-.18.14-.06.25,0,.36.33.33.69.63,1,.95A39.82,39.82,0,0,0,32.74,66c.14.11.31.22.32.44a12.42,12.42,0,0,1-2.18-.64,31.64,31.64,0,0,1-20.3-22.32,4,4,0,0,1-.22-1.2c.08,0,.09.11.11.18.17.61.35,1.23.53,1.84,0,.08,0,.15.12.16a.18.18,0,0,0,.22-.09,1.71,1.71,0,0,0,.13-.23c.11-.25.21-.51.33-.76.5-1,.95-2,1.51-2.92.39-.66.8-1.31,1.21-2A.37.37,0,0,1,14.85,38.23Zm3.61,17.65,0,0s0,0,0,0l0,0a0,0,0,0,0,0,0h0Zm.72.6c-.08-.19-.14-.31-.34-.29C18.87,56.36,19,56.44,19.18,56.48Z"/><path class="cls-5" d="M51.53,6.07a9.73,9.73,0,0,1,1.64.59c.45.17.89.39,1.34.56s.57.39.9.52a18.5,18.5,0,0,1,4.11,2.38A31.42,31.42,0,0,1,72.25,29.4a9.91,9.91,0,0,1,.3,1.81s-.07-.06-.08-.1a24.82,24.82,0,0,0-.64-2.71c-.19-.66-.44-1.29-.66-1.94,0-.1-.08-.24-.22-.23s-.16.11-.2.21c-.14.33-.27.67-.4,1A37.1,37.1,0,0,1,68,32.35c-.12.22-.22.49-.53.54a5.71,5.71,0,0,1-.21-.58,24.69,24.69,0,0,0-1.77-4.37,27.56,27.56,0,0,0-6.37-8.11c-.18-.16-.33-.38-.61-.4h0a.08.08,0,0,0-.09-.09h0c0-.06,0-.09-.1-.1a2.62,2.62,0,0,0-.55-.5,27.31,27.31,0,0,0-25.55-4c-.74.27-1.47.57-2.2.86a3.16,3.16,0,0,1,.95-.76,26.54,26.54,0,0,1,5.53-3,25.92,25.92,0,0,1,4.65-1.39,27.83,27.83,0,0,1,3-.45c.75-.07,1.51-.09,2.27-.15a10.78,10.78,0,0,1,1.39.06c.76,0,1.51.1,2.27.18a20.93,20.93,0,0,1,2.37.4,26.75,26.75,0,0,1,7.23,2.71A28.08,28.08,0,0,1,63,15.22a1.05,1.05,0,0,0,.56.32,2.86,2.86,0,0,0-.75-.73A27.94,27.94,0,0,0,60,12.76a32.27,32.27,0,0,0-2.9-1.55,2.73,2.73,0,0,1-.59-.3c0-.21-.12-.34-.26-.48-.63-.59-1.22-1.21-1.86-1.79-.82-.72-1.64-1.44-2.49-2.12C51.71,6.4,51.53,6.29,51.53,6.07ZM63.8,15.72l0,0s0,0,0,0h0s0,0,0,0a.14.14,0,0,0,.09.08l.09.09.09.09.09.09a0,0,0,0,0,0,0h0l0,0A.13.13,0,0,0,64.1,16L64,15.91l-.09-.09Zm.74.63,0,0h0l0,0s0,0,0,0Z"/><path class="cls-3" d="M94.16,29.43H91.34c-.38,0-.37,0-.43.38-.22,1.61-.45,3.22-.68,4.82Q89.87,37.3,89.5,40c-.28,2-.57,4-.85,6-.15,1.07-.26,2.15-.47,3.21a8.54,8.54,0,0,1-1.8,3.95,7.34,7.34,0,0,1-3.76,2.38,10.22,10.22,0,0,1-2.9.42c-.34,0-.35,0-.3-.35.15-.93.29-1.85.43-2.78,0-.2.05-.37.35-.4a3.61,3.61,0,0,0,3.5-3.13c.23-.94.31-1.91.45-2.86.23-1.58.45-3.15.67-4.73.19-1.33.37-2.67.56-4,.22-1.56.45-3.12.67-4.69.15-1.07.31-2.14.46-3.21,0-.27,0-.3-.28-.3H83.82c-.39,0-.41,0-.36-.4.12-.92.23-1.85.35-2.78.06-.43.06-.43.48-.43h2.29c.47,0,.47,0,.54-.48.13-.78.23-1.56.38-2.34a9.81,9.81,0,0,1,1.39-3.53,6.59,6.59,0,0,1,4.36-2.85,11.94,11.94,0,0,1,5.35.29l1,.28c.29.08.3.1.23.39l-.54,2.08c-.07.3-.14.6-.22.9s-.1.3-.4.22a16.93,16.93,0,0,0-2.32-.44,6,6,0,0,0-2.19.08,3,3,0,0,0-2,1.85,8.55,8.55,0,0,0-.53,2.34c0,.32-.07.64-.11,1,0,.17,0,.25.22.24h5.63c.44,0,.45,0,.39.44-.12.88-.23,1.77-.34,2.65l0,.22c0,.23-.13.31-.37.31C96.06,29.42,95.11,29.43,94.16,29.43Z"/><path class="cls-6" d="M136.45,48.63a3.54,3.54,0,0,1-1.12.17,10.47,10.47,0,0,1-5.34-.66,7.66,7.66,0,0,1-4.34-5,1.17,1.17,0,0,0,.2-.06c.84-.48,1.66-1,2.5-1.44.49-.26.91-.72,1.54-.62a9.79,9.79,0,0,0,.66,1.76,4,4,0,0,0,2.95,2,9,9,0,0,0,2.88,0,25.12,25.12,0,0,0,6-1.75c.32-.12.63-.26.94-.37s.27-.16.22-.38a13.42,13.42,0,0,1-.3-3.84,15,15,0,0,1,2.32-7.68A11.32,11.32,0,0,1,158,26a7.47,7.47,0,0,1,5.24,5.11,7.56,7.56,0,0,1,.42,1.87,1,1,0,0,0-.51.09c-.81.48-1.62,1-2.44,1.43a11.36,11.36,0,0,1-1.41.77l0-.48a8,8,0,0,0-.61-3,4,4,0,0,0-2.44-2.32,5,5,0,0,0-4.66.77,8,8,0,0,0-2.65,3.59,14.75,14.75,0,0,0-1,6.44c0,.55.16,1.07.22,1.61a.64.64,0,0,0-.38.1l-1.17.68L144,44.09l-2.59,1.48-3.14,1.82c-.51.3-1,.61-1.55.9A.39.39,0,0,0,136.45,48.63Z"/><path class="cls-7" d="M71,46.65A20.19,20.19,0,0,1,70,49.25a31.67,31.67,0,0,1-21.4,17.44,4.21,4.21,0,0,1-.86.16.14.14,0,0,1-.16-.08,2.88,2.88,0,0,0,.7-.18,15,15,0,0,0,2.79-.86,21.7,21.7,0,0,0,3.44-1.64c.51-.29,1-.55,1.52-.87a29.63,29.63,0,0,0,2.56-1.89,4.73,4.73,0,0,0,.91-.82c.29-.42.25-.52-.23-.64a1,1,0,0,0-.17,0,25.29,25.29,0,0,1-3.47-.66c-.81-.19-1.6-.44-2.4-.67-.23-.07-.41-.17-.38-.45l.08-.1A28,28,0,0,0,57.2,54.1a3.09,3.09,0,0,0,.74-1h0c.09,0,.08,0,0-.1a4.28,4.28,0,0,0,.69-.78,27.19,27.19,0,0,0,5.43-14.8,26.31,26.31,0,0,0,0-3.55,28.56,28.56,0,0,0-.72-4.49,29.4,29.4,0,0,0-1.55-4.55.52.52,0,0,1,.34.26,29.78,29.78,0,0,1,2.19,3.47c.36.69.7,1.38,1,2.1A26.87,26.87,0,0,1,66.47,34a24.44,24.44,0,0,1,.73,3.5,22.69,22.69,0,0,1,.24,2.73c0,.86,0,1.73,0,2.59a12.14,12.14,0,0,1-.12,1.48c-.09.83-.24,1.66-.4,2.49a26.86,26.86,0,0,1-1.36,4.56,23.57,23.57,0,0,1-1.41,3A27.68,27.68,0,0,1,62.5,57c-.17.23-.33.49-.5.75.19.06.25-.06.32-.14.42-.56.86-1.11,1.26-1.67a29.7,29.7,0,0,0,2.54-4.45,2.17,2.17,0,0,1,.34-.7.53.53,0,0,0,.27-.13c.57-.47,1.13-1,1.65-1.48.31-.3.61-.59.9-.9A13.14,13.14,0,0,0,70.48,47C70.61,46.84,70.75,46.62,71,46.65Zm-9.66,12,.08-.09s.11-.06,0-.12l0,.11-.09.09s0,0,0,0Zm.29-.39A.26.26,0,0,0,62,58s0,0,0,0A.27.27,0,0,0,61.67,58.22Z"/><path class="cls-8" d="M159.25,35.24a11.36,11.36,0,0,0,1.41-.77c.82-.47,1.63-.95,2.44-1.43a1,1,0,0,1,.51-.09,14.52,14.52,0,0,1,.06,4.11c-.06.63-.25,1.24-.36,1.86a12.91,12.91,0,0,1-2.68,5.78,10.6,10.6,0,0,1-6.87,4,10.15,10.15,0,0,1-5.48-.51,6.74,6.74,0,0,1-2.6-1.74.41.41,0,0,1-.07-.11l-.07-.07,0,0a.1.1,0,0,0-.05-.06l-.31-.31a0,0,0,0,0-.08,0,40.18,40.18,0,0,1-4.23,1.64l-.26.06a.19.19,0,0,0-.17.07l-.1,0a.15.15,0,0,0-.16.06,5.54,5.54,0,0,1-1.06.29c-.07,0-.13,0-.17.06l-.17,0-.09,0a.47.47,0,0,1-.26.05.2.2,0,0,0-.19.06l-.17,0a.2.2,0,0,0-.18.05l-.25,0-.1,0a.5.5,0,0,1-.27,0,.18.18,0,0,0-.16,0,.75.75,0,0,1-.36.05l-.23,0-.05,0a.39.39,0,0,1,.24-.34c.52-.29,1-.6,1.55-.9l3.14-1.82L144,44.09l2.57-1.49,1.17-.68a.64.64,0,0,1,.38-.1,9.51,9.51,0,0,0,.58,1.41,3.91,3.91,0,0,0,2.51,2,5,5,0,0,0,2.52,0,5.69,5.69,0,0,0,3.07-2.15,12.08,12.08,0,0,0,2.11-4.81A16.85,16.85,0,0,0,159.25,35.24Z"/><path class="cls-3" d="M129.89,41c-.63-.1-1,.36-1.54.62-.84.45-1.66,1-2.5,1.44a1.17,1.17,0,0,1-.2.06,5.52,5.52,0,0,1-.43-1.64,16.46,16.46,0,0,1,1-8.45,11.44,11.44,0,0,1,5.24-6.15,10.49,10.49,0,0,1,4.27-1.25,17,17,0,0,1,7,1.12c.33.11.65.25,1,.36.18.06.25.13.19.35-.34,1.1-.66,2.21-1,3.32-.08.27-.09.27-.38.17-.87-.29-1.74-.6-2.62-.88a11.54,11.54,0,0,0-3-.55,5.88,5.88,0,0,0-5.55,3.05A11.3,11.3,0,0,0,130,36.48a17.47,17.47,0,0,0-.23,2.49A14,14,0,0,0,129.89,41Z"/><path class="cls-3" d="M117.46,38.31a15.46,15.46,0,0,1,.22-1.92c.18-1.43.38-2.86.58-4.29s.4-2.93.59-4.39.37-2.81.56-4.21.39-2.87.58-4.3c.13-1,.26-1.91.38-2.87,0-.32,0-.32.38-.32,1.31,0,2.63,0,4,0,.3,0,.3,0,.26.32-.26,2-.53,3.9-.79,5.86s-.54,4.11-.82,6.17-.57,4.13-.85,6.2a6,6,0,0,1-.18,1.12,1,1,0,0,0-.64.24l-.91.52-2.91,1.7A.75.75,0,0,1,117.46,38.31Z"/><path class="cls-9" d="M191.5,29.26c-.1.77-.19,1.54-.3,2.31-.22,1.6-.44,3.21-.67,4.82q-.37,2.67-.74,5.34l-.66,4.73c-.1.68-.18,1.36-.28,2,0,.36,0,.36-.4.36h-4.09c-.35,0-.35,0-.3-.34.42-3,.85-6,1.27-9,.37-2.58.74-5.15,1.1-7.73a2.22,2.22,0,0,0,.82-.39c1.2-.68,2.4-1.39,3.59-2.09A.68.68,0,0,1,191.5,29.26Z"/><path class="cls-10" d="M71,46.65c-.29,0-.43.19-.56.36a13.14,13.14,0,0,1-1.2,1.27c-.29.31-.59.6-.9.9-.52.52-1.08,1-1.65,1.48a.53.53,0,0,1-.27.13,1,1,0,0,1,.11-.38,25.47,25.47,0,0,0,1.05-3.2,28,28,0,0,0,.63-3.16,21.77,21.77,0,0,0,.23-2.42,30.84,30.84,0,0,0-.06-3.33c0-.48-.06-1-.13-1.44a28.92,28.92,0,0,0-.7-3.55,1.56,1.56,0,0,1-.08-.42c.31,0,.41-.32.53-.54a37.1,37.1,0,0,0,2.31-4.9c.13-.34.26-.68.4-1,0-.1.07-.21.2-.21s.18.13.22.23c.22.65.47,1.28.66,1.94a24.82,24.82,0,0,1,.64,2.71s0,.07.08.1a14.85,14.85,0,0,1,.26,2,30.83,30.83,0,0,1,.06,4.61,30.36,30.36,0,0,1-1.79,8.77Z"/><path class="cls-11" d="M14.85,38.23a.37.37,0,0,0-.33.24c-.41.66-.82,1.31-1.21,2-.56,1-1,2-1.51,2.92-.12.25-.22.51-.33.76a1.71,1.71,0,0,1-.13.23.18.18,0,0,1-.22.09c-.08,0-.1-.08-.12-.16-.18-.61-.36-1.23-.53-1.84,0-.07,0-.14-.11-.18h0c0-.14,0-.29-.1-.39h0c0-.14.06-.3-.09-.4a12.67,12.67,0,0,1-.32-2,11.3,11.3,0,0,1-.12-1.84A1.16,1.16,0,0,0,9.7,37v-.19l0,0a.08.08,0,0,0,0,0,19.83,19.83,0,0,1,0-2,.18.18,0,0,0,0-.2,29.54,29.54,0,0,1,1-6.73.6.6,0,0,1,.06-.11c.07.11.14.1.21,0,.41-.42.85-.81,1.22-1.26a12.26,12.26,0,0,1,1.48-1.49c.32-.27.6-.56.9-.84a2.85,2.85,0,0,1,.26-.23c.12-.09.24,0,.22.14s-.08.33-.12.5a28.84,28.84,0,0,0-.77,4.21,25.85,25.85,0,0,0-.12,4,26.67,26.67,0,0,0,.72,5.1A.74.74,0,0,1,14.85,38.23Z"/><path class="cls-9" d="M183.47,32.52a10.7,10.7,0,0,1-.18,2.18c-.25,1.81-.51,3.61-.76,5.42s-.51,3.56-.76,5.34l-.42,3c-.06.36-.07.36-.44.36h-3.78c-.33,0-.35,0-.3-.34.12-.93.25-1.85.38-2.78l.66-4.77c.23-1.61.45-3.22.68-4.82,0-.36.11-.73.16-1.09a.62.62,0,0,0,.37-.09c.23-.16.47-.29.71-.43.88-.5,1.75-1,2.64-1.51A2.73,2.73,0,0,1,183.47,32.52Z"/><path class="cls-6" d="M165.81,33.91c0-.48.09-1,.14-1.44a7.46,7.46,0,0,0-.21-2.82,3.87,3.87,0,0,0-.63-1.29,2.78,2.78,0,0,0-2.06-1.11c-.21,0-.32-.07-.32-.31,0-.71,0-1.43,0-2.14,0-.37,0-.39.34-.4a9.51,9.51,0,0,1,4.37.78,5,5,0,0,1,1.87,1.48.42.42,0,0,0,.52.15,27.58,27.58,0,0,1,3.83-.75,15.11,15.11,0,0,1,5.28.13l.19.09a.46.46,0,0,0-.39.13,1.83,1.83,0,0,1-.44.28c-.45.27-.91.52-1.36.78L174.22,29l-1.58.93c-.09.05-.14.11,0,.19a9.62,9.62,0,0,1-1.38.35c-.35.07-.53.23-.53.58a1.57,1.57,0,0,1-.05.3,1.06,1.06,0,0,0-.62.19c-.11.06-.22.14-.33.21-.91.52-1.81,1.06-2.72,1.57A3.4,3.4,0,0,1,165.81,33.91Z"/><path class="cls-6" d="M117.46,38.31a.75.75,0,0,0,.4-.17l2.91-1.7.91-.52a1,1,0,0,1,.64-.24c0,.88-.22,1.74-.32,2.61s-.28,2-.37,3c0,.51.1,1,.07,1.53a2.87,2.87,0,0,0,1.78,1.86,4.83,4.83,0,0,0,1.07.21c.22,0,.33.09.33.34,0,1.13,0,2.25,0,3.38,0,.15,0,.29-.21.29a10,10,0,0,1-4.25-.7,5.34,5.34,0,0,1-3.17-3.73,9.26,9.26,0,0,1-.17-3.4c.08-.85.22-1.71.33-2.56A.76.76,0,0,1,117.46,38.31Z"/><path class="cls-12" d="M48.27,66.59a2.88,2.88,0,0,1-.7.18c-.3.07-.6.11-.89.2a6.38,6.38,0,0,0-1,.24h-.14c-.16,0-.33-.07-.47.07a5.77,5.77,0,0,1-1.17.15,32.26,32.26,0,0,1-6.29-.12,29,29,0,0,1-4.42-.86l-.09,0h0c0-.22-.18-.33-.32-.44a39.82,39.82,0,0,1-3.27-2.82c-.33-.32-.69-.62-1-.95-.1-.11-.22-.22,0-.36a33.74,33.74,0,0,0,3.3.8,24.33,24.33,0,0,0,2.42.36c.85.07,1.71.17,2.57.16.69,0,1.37,0,2.06-.07s1.18-.12,1.78-.18a4.48,4.48,0,0,1,1-.11.45.45,0,0,0,.28.36c.52.3,1,.63,1.55.9A45.33,45.33,0,0,0,48,66.23.32.32,0,0,1,48.27,66.59Z"/><path class="cls-13" d="M51.53,6.07c0,.22.18.33.32.45.85.68,1.67,1.4,2.49,2.12.64.58,1.23,1.2,1.86,1.79.14.14.28.27.26.48-.4-.15-.81-.31-1.22-.45a28.36,28.36,0,0,0-5.06-1.34,37.92,37.92,0,0,0-4.25-.39c-.69,0-1.37.12-2.06.06,0-.16-.12-.22-.23-.29-.51-.31-1-.64-1.53-.93-.87-.48-1.73-1-2.63-1.41-.74-.34-1.47-.71-2.24-1-.27-.1-.43-.34-.69-.43a9.44,9.44,0,0,1,1.77-.25,31,31,0,0,1,4.91-.08,30.58,30.58,0,0,1,8,1.53l.07,0a.19.19,0,0,0,.2.07Z"/><path class="cls-8" d="M172.6,30.14c-.1-.08,0-.14,0-.19l1.58-.93,2.69-1.55c.45-.26.91-.51,1.36-.78a1.83,1.83,0,0,0,.44-.28.46.46,0,0,1,.39-.13h.1a.16.16,0,0,0,.18.07.72.72,0,0,1,.35.11.17.17,0,0,0,.16.07,5,5,0,0,1,2.8,2.39,6.57,6.57,0,0,1,.78,3.59,2.73,2.73,0,0,0-1,.51c-.89.49-1.76,1-2.64,1.51-.24.14-.48.27-.71.43a.62.62,0,0,1-.37.09,12.86,12.86,0,0,0,.14-2.48,2.63,2.63,0,0,0-2-2.54,4.17,4.17,0,0,0-1.16-.17h-1.41c-.12,0-.25,0-.36.06l-.35,0c-.09,0-.19,0-.26.06l-.27,0a.18.18,0,0,0-.17,0Z"/><path class="cls-8" d="M165.81,33.91a3.4,3.4,0,0,0,1.16-.57c.91-.51,1.81-1.05,2.72-1.57.11-.07.22-.15.33-.21a1.06,1.06,0,0,1,.62-.19c-.21,1.56-.43,3.12-.64,4.68l-.48,3.51a.76.76,0,0,1-.08.33,1,1,0,0,0-.57.2l-3.57,2.08a1.31,1.31,0,0,1-.68.27c0-.74.18-1.47.28-2.21.21-1.61.44-3.21.67-4.81C165.64,34.92,165.73,34.41,165.81,33.91Z"/><path class="cls-9" d="M164.62,42.44a1.31,1.31,0,0,0,.68-.27l3.57-2.08a1,1,0,0,1,.57-.2c-.05.81-.2,1.6-.3,2.39-.21,1.62-.45,3.24-.68,4.86-.06.48-.13,1-.19,1.43,0,.17-.06.3-.29.3h-4.17c-.12-.09-.08-.19-.07-.26q.36-2.66.74-5.29C164.53,43,164.57,42.73,164.62,42.44Z"/><path class="cls-8" d="M191.5,29.26a.68.68,0,0,0-.66.07c-1.19.7-2.39,1.41-3.59,2.09a2.22,2.22,0,0,1-.82.39c.12-.85.22-1.71.34-2.56.2-1.39.41-2.78.59-4.17,0-.21.09-.3.32-.3H192l.08,0c.08.06.05.16,0,.24-.18,1.31-.36,2.63-.55,4A1.83,1.83,0,0,1,191.5,29.26Z"/><path class="cls-8" d="M192.87,18.69c-.08.63-.16,1.28-.25,1.93-.11.84-.23,1.68-.34,2.52a1.52,1.52,0,0,0,0,.21c0,.22-.11.31-.33.29s-.71,0-1.06,0H188c-.34,0-.35,0-.31-.35.12-.88.23-1.77.36-2.65a2.32,2.32,0,0,1,2.29-2h2.33A.29.29,0,0,1,192.87,18.69Z"/><path class="cls-14" d="M45.63,67.21a6.38,6.38,0,0,1,1-.24c.29-.09.59-.13.89-.2a.14.14,0,0,0,.16.08A10.73,10.73,0,0,1,45.63,67.21Z"/><path class="cls-3" d="M9.7,37a1.16,1.16,0,0,1,.05.61A1.05,1.05,0,0,1,9.7,37Z"/><path class="cls-14" d="M45,67.29c.14-.14.31-.06.47-.07A.69.69,0,0,1,45,67.29Z"/><path class="cls-6" d="M173.92,29.94c.11-.1.24-.06.36-.06A.5.5,0,0,1,173.92,29.94Z"/><path class="cls-4" d="M10.27,41.88c.13.1.11.25.1.39C10.24,42.16,10.28,42,10.27,41.88Z"/><path class="cls-4" d="M10.19,41.47c.15.1.08.26.09.4C10.17,41.76,10.2,41.61,10.19,41.47Z"/><path class="cls-6" d="M173.31,30c.07-.09.17-.07.26-.06A.3.3,0,0,1,173.31,30Z"/><path class="cls-3" d="M9.73,34.5a.18.18,0,0,1,0,.2A.18.18,0,0,1,9.73,34.5Z"/><path class="cls-6" d="M179.89,26.54a.17.17,0,0,1-.16-.07A.16.16,0,0,1,179.89,26.54Z"/><path class="cls-6" d="M138.93,48.12c0-.06.1-.06.17-.06A.16.16,0,0,1,138.93,48.12Z"/><path class="cls-6" d="M138.22,48.3a.2.2,0,0,1,.19-.06A.19.19,0,0,1,138.22,48.3Z"/><path class="cls-6" d="M172.87,30.1a.18.18,0,0,1,.17,0A.17.17,0,0,1,172.87,30.1Z"/><path class="cls-6" d="M179.38,26.36a.16.16,0,0,1-.18-.07A.19.19,0,0,1,179.38,26.36Z"/><path class="cls-5" d="M51.53,6.07a.19.19,0,0,1-.2-.07A.21.21,0,0,1,51.53,6.07Z"/><path class="cls-6" d="M137.87,48.38a.2.2,0,0,1,.18-.05A.17.17,0,0,1,137.87,48.38Z"/><path class="cls-6" d="M137.09,48.54a.18.18,0,0,1,.16,0C137.2,48.54,137.15,48.57,137.09,48.54Z"/><path class="cls-6" d="M136.5,48.61l.23,0C136.66,48.65,136.58,48.69,136.5,48.61Z"/><path class="cls-6" d="M140.42,47.69a.19.19,0,0,1,.17-.07A.18.18,0,0,1,140.42,47.69Z"/><path class="cls-6" d="M140.16,47.77a.15.15,0,0,1,.16-.06A.16.16,0,0,1,140.16,47.77Z"/><path class="cls-3" d="M9.7,36.74a.08.08,0,0,1,0,0l0,0S9.68,36.76,9.7,36.74Z"/><path class="cls-6" d="M145.08,45.92a0,0,0,0,1,.08,0h-.08Z"/><path class="cls-6" d="M145.47,46.22a.1.1,0,0,1,.05.06S145.47,46.26,145.47,46.22Z"/><path class="cls-6" d="M145.54,46.3l.07.07A.07.07,0,0,1,145.54,46.3Z"/><path class="cls-6" d="M138.67,48.19l.09,0S138.71,48.21,138.67,48.19Z"/><path class="cls-4" d="M33.05,66.42l.09,0A.07.07,0,0,1,33.05,66.42Z"/><path class="cls-6" d="M137.52,48.46l.1,0S137.57,48.47,137.52,48.46Z"/><path class="cls-1" d="M61.77,24.88a29.4,29.4,0,0,1,1.55,4.55A28.56,28.56,0,0,1,64,33.92a26.31,26.31,0,0,1,0,3.55,27.19,27.19,0,0,1-5.43,14.8,4.28,4.28,0,0,1-.69.78.07.07,0,0,0,0,.1h0c-.18,0-.26.1-.37.18a27,27,0,0,1-3.79,2.37l-1.2.62c-.9.35-1.78.74-2.7,1a27.28,27.28,0,0,1-25.11-4.22l-.59-.45c0-.17-.11-.27-.19-.38a27.12,27.12,0,0,1-5.06-11.45,26.08,26.08,0,0,1-.45-5.5,27,27,0,0,1,5.72-16,5.89,5.89,0,0,1,.42-.45l.21-.15a27.18,27.18,0,0,1,4.54-2.8l.7-.36c.73-.29,1.46-.59,2.2-.86a27.31,27.31,0,0,1,25.55,4,2.62,2.62,0,0,1,.55.5c0,.05,0,.09.1.1h0a.08.08,0,0,0,.09.09h0c0,.08.05.13.09.19A29.68,29.68,0,0,1,61.77,24.88Z"/><path class="cls-15" d="M30.07,15.55l-.7.36a27.18,27.18,0,0,0-4.54,2.8l-.21.15c0-.15.1-.24.18-.34A27.21,27.21,0,0,1,37.73,9.93a25.14,25.14,0,0,1,4.62-1l1.52-.17c.69.06,1.37-.1,2.06-.06a37.92,37.92,0,0,1,4.25.39,28.36,28.36,0,0,1,5.06,1.34c.41.14.82.3,1.22.45a2.73,2.73,0,0,0,.59.3A32.27,32.27,0,0,1,60,12.76a27.94,27.94,0,0,1,2.89,2.05,2.86,2.86,0,0,1,.75.73,1.05,1.05,0,0,1-.56-.32,28.08,28.08,0,0,0-3.28-2.1,26.75,26.75,0,0,0-7.23-2.71,20.93,20.93,0,0,0-2.37-.4c-.76-.08-1.51-.14-2.27-.18a10.78,10.78,0,0,0-1.39-.06c-.76.06-1.52.08-2.27.15a27.83,27.83,0,0,0-3,.45,25.92,25.92,0,0,0-4.65,1.39,26.54,26.54,0,0,0-5.53,3A3.16,3.16,0,0,0,30.07,15.55Z"/><path class="cls-1" d="M107.55,29.77a18.24,18.24,0,0,1,3.38.47c.3.07.32.11.27.43-.41,2.76-.81,5.52-1.22,8.28-.24,1.58-.47,3.15-.7,4.73-.07.44-.07.44-.5.52-.71.13-1.41.29-2.12.38a8.73,8.73,0,0,1-3.1,0,3.71,3.71,0,0,1-2.47-1.88,6.48,6.48,0,0,1-.75-2.78,13.15,13.15,0,0,1,.85-5.72,7.57,7.57,0,0,1,2.36-3.28,5.38,5.38,0,0,1,3-1.14A5.15,5.15,0,0,1,107.55,29.77Z"/><path class="cls-16" d="M52.58,56.32l1.2-.62a27,27,0,0,0,3.79-2.37c.11-.08.19-.23.37-.18a3.09,3.09,0,0,1-.74,1A28,28,0,0,1,52.92,58l-.08.1a.59.59,0,0,0-.16.07,26.32,26.32,0,0,1-4.9,2.78,24.55,24.55,0,0,1-4,1.38c-.73.19-1.47.35-2.2.52a4.48,4.48,0,0,0-1,.11c-.6.06-1.19.11-1.78.18s-1.37,0-2.06.07c-.86,0-1.72-.09-2.57-.16a24.33,24.33,0,0,1-2.42-.36,33.74,33.74,0,0,1-3.3-.8,6.3,6.3,0,0,0-1.3-.52,26.49,26.49,0,0,1-3.42-1.58,26.79,26.79,0,0,1-4-2.73c-.16-.14-.38-.21-.45-.44s.13,0,.19,0a27.49,27.49,0,0,0,6.93,3.8,25.69,25.69,0,0,0,4.11,1.18,21.47,21.47,0,0,0,2.77.39,24.12,24.12,0,0,0,3.06.15c.68-.05,1.36-.07,2-.14a29.13,29.13,0,0,0,3.49-.55,24,24,0,0,0,3.24-.93,27.9,27.9,0,0,0,7.42-4.08A.56.56,0,0,0,52.58,56.32Z"/><path class="cls-16" d="M19.18,56.48c-.22,0-.31-.12-.34-.29C19,56.17,19.1,56.29,19.18,56.48Z"/><path class="cls-16" d="M18.46,55.88l0,0h0a0,0,0,0,1,0,0Z"/><path class="cls-16" d="M18.46,55.88l0,0s0,0,0,0l0,0Z"/><path class="cls-14" d="M61.77,24.88a29.68,29.68,0,0,0-3.13-5.26c0-.06-.1-.11-.09-.19.28,0,.43.24.61.4a27.56,27.56,0,0,1,6.37,8.11,24.69,24.69,0,0,1,1.77,4.37,5.71,5.71,0,0,0,.21.58,1.56,1.56,0,0,0,.08.42,28.92,28.92,0,0,1,.7,3.55c.07.48.08,1,.13,1.44a30.84,30.84,0,0,1,.06,3.33,21.77,21.77,0,0,1-.23,2.42,28,28,0,0,1-.63,3.16,25.47,25.47,0,0,1-1.05,3.2,1,1,0,0,0-.11.38,2.17,2.17,0,0,0-.34.7,29.7,29.7,0,0,1-2.54,4.45c-.4.56-.84,1.11-1.26,1.67-.07.08-.13.2-.32.14.17-.26.33-.52.5-.75a27.68,27.68,0,0,0,1.66-2.63,23.57,23.57,0,0,0,1.41-3,26.86,26.86,0,0,0,1.36-4.56c.16-.83.31-1.66.4-2.49a12.14,12.14,0,0,0,.12-1.48c0-.86,0-1.73,0-2.59a22.69,22.69,0,0,0-.24-2.73,24.44,24.44,0,0,0-.73-3.5,26.87,26.87,0,0,0-1.16-3.3c-.31-.72-.65-1.41-1-2.1a29.78,29.78,0,0,0-2.19-3.47A.52.52,0,0,0,61.77,24.88Z"/><path class="cls-14" d="M58.56,19.43a.08.08,0,0,1-.09-.09A.08.08,0,0,1,58.56,19.43Z"/><path class="cls-14" d="M58.47,19.34c-.06,0-.08-.05-.1-.1S58.47,19.28,58.47,19.34Z"/><path class="cls-15" d="M64.54,16.35l0,0s0,0,0,0Z"/><path class="cls-15" d="M64.54,16.35l0,0h0l0,0Z"/><path class="cls-15" d="M64.19,16.09,64.1,16h0a.13.13,0,0,1,.09.09Z"/><path class="cls-15" d="M64,15.91l-.09-.09h0l.09.09Z"/><path class="cls-15" d="M64.1,16,64,15.91h0l.09.09Z"/><path class="cls-15" d="M63.92,15.82a.14.14,0,0,1-.09-.08l.09.08Z"/><path class="cls-15" d="M63.8,15.72v0h0s0,0,0,0Z"/><path class="cls-15" d="M64.19,16.09l0,0h0a0,0,0,0,1,0,0Z"/><path class="cls-1" d="M159.25,35.24a16.85,16.85,0,0,1-.37,3,12.08,12.08,0,0,1-2.11,4.81,5.69,5.69,0,0,1-3.07,2.15,5,5,0,0,1-2.52,0,3.91,3.91,0,0,1-2.51-2,9.51,9.51,0,0,1-.58-1.41c-.06-.54-.19-1.06-.22-1.61a14.75,14.75,0,0,1,1-6.44,8,8,0,0,1,2.65-3.59,5,5,0,0,1,4.66-.77,4,4,0,0,1,2.44,2.32,8,8,0,0,1,.61,3Z"/><path class="cls-14" d="M41.58,62.81c.73-.17,1.47-.33,2.2-.52a24.55,24.55,0,0,0,4-1.38,26.32,26.32,0,0,0,4.9-2.78.59.59,0,0,1,.16-.07c0,.28.15.38.38.45.8.23,1.59.48,2.4.67a25.29,25.29,0,0,0,3.47.66,1,1,0,0,1,.17,0c.48.12.52.22.23.64a4.73,4.73,0,0,1-.91.82A29.63,29.63,0,0,1,56,63.22c-.49.32-1,.58-1.52.87a21.7,21.7,0,0,1-3.44,1.64,15,15,0,0,1-2.79.86.32.32,0,0,0-.23-.36,45.33,45.33,0,0,1-4.63-2.16c-.53-.27-1-.6-1.55-.9A.45.45,0,0,1,41.58,62.81Z"/><path class="cls-14" d="M61.67,58.22a.27.27,0,0,1,.24-.29s.05,0,0,0A.26.26,0,0,1,61.67,58.22Z"/><path class="cls-14" d="M61.46,58.51l0-.11c.07.06,0,.08,0,.12Z"/><path class="cls-16" d="M57.93,53.15a.07.07,0,0,1,0-.1C58,53.1,58,53.14,57.93,53.15Z"/><path class="cls-14" d="M61.37,58.6l.09-.09h0l-.08.09Z"/><path class="cls-14" d="M61.38,58.61l0,0s0,0,0,0Z"/></svg>