<svg id="Camada_1" data-name="Camada 1" xmlns="http://www.w3.org/2000/svg" viewBox="0 0 200 72.1"><defs><style>.cls-1{fill:#fff;}</style></defs><g id="n97NeI"><path class="cls-1" d="M29.57,40.58c0-.22.05-.44.09-.66a2.88,2.88,0,0,1,1.68-2.22A3.29,3.29,0,0,1,33,37.46a4.49,4.49,0,0,1,1.39.38s.08.07.08.1V39.2l-.13-.08a2.84,2.84,0,0,0-1.54-.52A1.8,1.8,0,0,0,31,39.85a2.27,2.27,0,0,0,.18,2,1.79,1.79,0,0,0,1.3.85,3.35,3.35,0,0,0,1.95-.29l.18-.08v.91c0,.31,0,.31-.28.41a4.49,4.49,0,0,1-2.41.16,2.83,2.83,0,0,1-2.26-2.33c0-.19-.06-.4-.09-.6Z"/><path class="cls-1" d="M47.6,43.64V47H46.35V37.57h2.36a4.54,4.54,0,0,1,1.67.35,2.5,2.5,0,0,1,1.42,1.61,3.46,3.46,0,0,1-.37,3.06,2.86,2.86,0,0,1-2.22,1.3,3.22,3.22,0,0,1-1.53-.23h-.06Zm0-4.93v3.74a.11.11,0,0,0,.08.12,3.28,3.28,0,0,0,.93.25,1.9,1.9,0,0,0,1.93-1.14,2.63,2.63,0,0,0,.15-1.36,1.63,1.63,0,0,0-1.33-1.51,10.28,10.28,0,0,0-1.75-.1Z"/><path class="cls-1" d="M41.06,43.3c-.26.14-.51.3-.78.42a2,2,0,0,1-1.45.08,1.52,1.52,0,0,1-1-1.56,1.65,1.65,0,0,1,.88-1.32,8.47,8.47,0,0,1,1.38-.6L41,40s.08-.06.08-.09a5.34,5.34,0,0,0-.05-.69.85.85,0,0,0-.88-.68,2.43,2.43,0,0,0-2,.81l-.09.09-.1.11V38.32a.16.16,0,0,1,.06-.13,2.35,2.35,0,0,1,1.54-.76,3.07,3.07,0,0,1,1.47.15,1.78,1.78,0,0,1,1.21,1.6v3.55a.21.21,0,0,0,.31.21,2.22,2.22,0,0,0,.41-.2l.15-.11v.51a.34.34,0,0,1-.19.37,2,2,0,0,1-.85.34,2.32,2.32,0,0,1-.53,0,.68.68,0,0,1-.51-.42A.14.14,0,0,0,41.06,43.3Zm0-2.6c-.3.11-.6.21-.87.33a2.55,2.55,0,0,0-.83.51.89.89,0,0,0-.19,1A.86.86,0,0,0,40,43a1.53,1.53,0,0,0,1-.44.17.17,0,0,0,.08-.17Z"/><path class="cls-1" d="M72.64,42.67v.7a.1.1,0,0,1,0,.07,2.62,2.62,0,0,1-.85.43,1.42,1.42,0,0,1-.71,0,.69.69,0,0,1-.49-.46.49.49,0,0,1,0-.11l-.35.23a2.39,2.39,0,0,1-1.52.37,1.49,1.49,0,0,1-1.32-1.64,1.61,1.61,0,0,1,.88-1.34,8.76,8.76,0,0,1,1.37-.6l.87-.3s.08-.06.08-.09a3.89,3.89,0,0,0,0-.68.84.84,0,0,0-.88-.68,2.4,2.4,0,0,0-2,.8l-.19.2V38.32a.16.16,0,0,1,.06-.13,2.35,2.35,0,0,1,1.54-.76,3.11,3.11,0,0,1,1.48.15,1.77,1.77,0,0,1,1.2,1.6v3.55a.21.21,0,0,0,.31.21,2.22,2.22,0,0,0,.41-.2Zm-2.12-2c-.3.11-.6.21-.87.33a2.45,2.45,0,0,0-.83.51.89.89,0,0,0-.19,1,.86.86,0,0,0,.85.5,1.53,1.53,0,0,0,1-.44.23.23,0,0,0,.08-.17V40.83A.62.62,0,0,1,70.52,40.7Z"/><path class="cls-1" d="M64.43,42.35v1.09s0,.06-.05.07a3.06,3.06,0,0,1-1.9.35,1.85,1.85,0,0,1-1.2-.71,1.8,1.8,0,0,1-.31-1v-3.5h-1.1a.17.17,0,0,1,.07-.17l2.19-2.18h0v1.26h2v1.11h-2V42a.79.79,0,0,0,.79.79h0a2.4,2.4,0,0,0,1.26-.33Z"/><path class="cls-1" d="M77.26,43.77H76.05V34.35h1.21Z"/><path class="cls-1" d="M55.71,37.57h1.2v6.2h-1.2Z"/><path class="cls-1" d="M56.31,35a.74.74,0,0,1,.74.72.75.75,0,0,1-.74.73.72.72,0,0,1-.66-.79.73.73,0,0,1,.66-.66Z"/></g><path class="cls-1" d="M59.36,1.57v-1h-3v1c-1.68,0-2.84,0-2.84,1.25,0,.86.6,1.55,2,3.27l4,5.14s.66-.74,1.55-1.8L58.52,6.08c-1.38-1.72-2-2.4-2-3.27C56.52,1.57,57.68,1.57,59.36,1.57Z"/><path class="cls-1" d="M62.74,7.64c4.39-5.52,5.41-6.08,7.92-6.08v-1H60.72v1c1.43,0,3.71,0,3.71,1.56,0,.68-2.11,3.4-2.11,3.4L57.5,12.45,52.24,6.08c-1.38-1.72-2-2.4-2-3.27,0-1.25,1.16-1.25,2.84-1.25v-1H42.51L55,15.55l-4.7,5.65c-3.18,4-6.11,6.24-9.94,6.73-.61.07-6.38.07-10.75.07V15.54h3.14c1.81,0,5.53,0,7.64-1.43A7.06,7.06,0,0,0,43.63,7.9c0-4.9-3.51-6.71-7.15-7.31H21.06v.75c4.28,0,4.4,0,4.4,6.26v14c0,5.42,0,6.38-3.66,6.38H15a7.59,7.59,0,0,0,4.24-7.1c0-5.34-3.43-6.95-8.9-9.36-3.26-1.45-6.74-3-6.74-6.32C3.61,3.36,4.88.94,8.43.94c3.31,0,6.27,2.21,7.46,6.82h.89V3.6A9.86,9.86,0,0,0,13,.59H4.29A7.35,7.35,0,0,0,.9,6.87c0,5.34,4.62,7.34,7.76,8.69.25.09,1.65.68,1.9.81,2.84,1.2,5.73,2.83,5.73,6.14,0,2.59-2.08,5.47-6.24,5.47-6.57,0-8-6.87-8.34-8.82h-1V24s1.86,5,9.72,5H45.18L55.64,16.42l5.08,6.2c1.73,2.11,2.41,2.84,2.41,3.83,0,1.68-6.39,1.55-7.94,1.55v1H71.06L58.18,13.27ZM29.62,1.34a7,7,0,0,1,1.94-.15c2.54,0,7.5,0,7.5,6.81,0,6.53-5.22,6.53-7.5,6.53h-2Z"/><path class="cls-1" d="M77.32,29,64.44,13.28,69,7.64c4.39-5.52,5.38-6.08,7.91-6.08v-1h-3v1c-2.54,0-3.53.56-7.92,6.08l-4.52,5.64L74.3,29Z"/></svg>