<svg id="Camada_1" data-name="Camada 1" xmlns="http://www.w3.org/2000/svg" xmlns:xlink="http://www.w3.org/1999/xlink" viewBox="0 0 200 72.1"><defs><style>.cls-1{fill:url(#Gradiente_sem_nome_2);}.cls-2{fill:#fff;}</style><linearGradient id="Gradiente_sem_nome_2" x1="735.65" y1="526.11" x2="711.46" y2="559.86" gradientTransform="translate(-641.8 -523.07)" gradientUnits="userSpaceOnUse"><stop offset="0" stop-color="#da6f33"/><stop offset="0.55" stop-color="#df7f31"/><stop offset="0.69" stop-color="#d34361"/><stop offset="0.92" stop-color="#c32a5e"/></linearGradient></defs><path class="cls-1" d="M87.46,24.46h-.14a8.16,8.16,0,0,1-8.24-3.29,8.11,8.11,0,0,1-1.3-3.42c1.09-.44,2.54-.45,3.61-.77,0-.1,5.45-16.79,5.45-16.79L76,16.73q-2.34,3.51-4.67,7a2.68,2.68,0,0,0-.44.72H78.7L74.45,42.57s11.58-16,12.9-17.84C87.42,24.64,87.52,24.58,87.46,24.46Z"/><path class="cls-2" d="M.65,10.2H5.43c1.89,0,3.78-.06,5.68.06a12.47,12.47,0,0,1,4.13.93,6.46,6.46,0,0,1,4,5.91,8.53,8.53,0,0,1-.37,3.33,6.76,6.76,0,0,1-4.09,4.18,12.49,12.49,0,0,1-4,.91c-1.25.08-2.5,0-3.75.05-.44,0-.44,0-.44.43v8.34c0,.58,0,.49-.52.49h-5a1.19,1.19,0,0,0-.46,0Zm11.92,7.72-.09-.1c-1.86-.77-3.72-1.54-5.57-2.33-.31-.14-.31,0-.31.22v4.4c0,.35,0,.36.35.22Z"/><path class="cls-2" d="M84.39,7.93a12.47,12.47,0,0,1,3.94-.35,9.53,9.53,0,0,1,7.46,3.9,8.28,8.28,0,0,1,1.47,4.67,11.65,11.65,0,0,1-1.76,6.32c-1,1.67-2.1,3.24-3.19,4.85-1.58,2.37-3.19,4.73-4.77,7.11a.75.75,0,0,1-.71.39H80.17a.84.84,0,0,1,.21-.35l3-4.21,3.95-5.52c0-.06.15-.12.08-.24h-.14a8.1,8.1,0,0,1-8.24-3.32,8.54,8.54,0,0,1-1-7.09.66.66,0,0,0,0-.48l-.29.41c-.58.91-1.21,1.81-1.81,2.72q-2.34,3.51-4.64,7a3,3,0,0,0-.44.72,1.1,1.1,0,0,0,0,.51v9.68a.2.2,0,0,1-.21.23H65.31c-.58,0-.47,0-.47-.49V24.85a1.33,1.33,0,0,0-.23-.79q-4.39-6.7-8.76-13.43a.66.66,0,0,1-.18-.34c0-.14.19,0,.29,0h6.48a.59.59,0,0,1,.58.34q2.34,4.1,4.72,8.18c.09.16.19.32.29.51a.73.73,0,0,0,.26-.34q2.38-4.12,4.76-8.28a.76.76,0,0,1,.76-.43h6.36c.29,0,.41-.26.59-.4A10.59,10.59,0,0,1,84.39,7.93ZM84.8,14v5.09l6-2.59Z"/><path class="cls-2" d="M63.38,34.77a.71.71,0,0,1-.41.06H57.21a.52.52,0,0,1-.59-.39c-.52-1.37-1.08-2.73-1.6-4.09a.49.49,0,0,0-.54-.37H45.75a.48.48,0,0,0-.53.38c-.49,1.38-1,2.75-1.52,4.09-.09.24-.18.36-.46.35H37.39a.27.27,0,0,1-.25-.09l.5-1.21q4.78-11.4,9.58-22.79c.26-.58.09-.51.76-.51h4.79a.57.57,0,0,1,.61.41q3.33,8.09,6.7,16.14,1.64,3.91,3.25,7.82ZM50.24,17h-.09l-3,8.23h6.12C52.22,22.42,51.23,19.68,50.24,17Z"/><path class="cls-2" d="M20.4,22.53V10.77a1.41,1.41,0,0,0,0-.29c0-.19.06-.29.27-.27H26c.45,0,.46,0,.46.46V29.14c0,.56-.06.48.47.48h8.59c.46,0,.45-.06.45.46v4.3c0,.42.09.45-.42.45H20.84c-.42,0-.42,0-.42-.44Z"/></svg>