<svg id="Camada_1" data-name="Camada 1" xmlns="http://www.w3.org/2000/svg" viewBox="0 0 200 72.1"><defs><style>.cls-1{fill:#fff;}</style></defs><path class="cls-1" d="M53.82.68H10.93A4.41,4.41,0,0,0,6.52,5.09,4.34,4.34,0,0,0,7,7.15l4.28,8.13H3.53A2.86,2.86,0,0,0,.67,18.14,3,3,0,0,0,1,19.48L14.82,45.59a2.85,2.85,0,0,0,3.86,1.19h0a2.9,2.9,0,0,0,1.19-1.19l3.75-7.05,4.7,8.89a4.41,4.41,0,0,0,6,1.84,4.36,4.36,0,0,0,1.84-1.84L57.62,7A4.29,4.29,0,0,0,53.82.68ZM34.55,18,25.29,35.41a1.91,1.91,0,0,1-2.58.8,1.79,1.79,0,0,1-.81-.8L12.75,18a1.91,1.91,0,0,1,.78-2.58,2.13,2.13,0,0,1,.89-.22h18.5a1.85,1.85,0,0,1,1.86,1.85v0a1.68,1.68,0,0,1-.22.87Z"/><path class="cls-1" d="M99.44,19.45H94.75V35.53a.55.55,0,0,1-.55.55H90.58a.56.56,0,0,1-.56-.55V19.45H85.31a.53.53,0,0,1-.55-.51h0V16.08a.53.53,0,0,1,.53-.53H99.44a.55.55,0,0,1,.58.53v2.84A.56.56,0,0,1,99.44,19.45Z"/><path class="cls-1" d="M114.49,36a34.67,34.67,0,0,1-5.57.36c-3.57,0-6.72-.91-6.72-5.93V21.21c0-5,3.18-5.88,6.74-5.88a35.56,35.56,0,0,1,5.55.31c.38,0,.55.19.55.55v2.57a.55.55,0,0,1-.55.55h-5.81c-1.3,0-1.77.44-1.77,1.88v2.53h7.35a.57.57,0,0,1,.56.55V26.9a.56.56,0,0,1-.56.55h-7.35v2.94c0,1.47.47,1.88,1.77,1.88h5.81a.54.54,0,0,1,.55.54h0v2.56C115.06,35.74,114.89,35.91,114.49,36Z"/><path class="cls-1" d="M135.34,36.07h-4.41a.74.74,0,0,1-.74-.41l-3.76-6.06L123,35.48c-.19.33-.38.55-.68.55H118.2a.36.36,0,0,1-.41-.31s0,0,0,0a.6.6,0,0,1,.06-.19l6-10-6-9.48a.3.3,0,0,1,0-.16.39.39,0,0,1,.41-.36h4.43c.31,0,.53.28.69.52l3.53,5.59L130.21,16a.92.92,0,0,1,.69-.52H135a.4.4,0,0,1,.41.36.3.3,0,0,1-.05.16l-6,9.55,6.27,9.92a.57.57,0,0,1,.08.28C135.7,36,135.56,36.07,135.34,36.07Z"/><path class="cls-1" d="M78.13,15.64a.41.41,0,0,0-.41.35l-4,14.83c-.06.3-.14.41-.39.41s-.33-.11-.39-.41L68.93,16a.44.44,0,0,0-.42-.35h-4a.43.43,0,0,0-.43.43h0v.09s4.89,17,5,17.19a4.16,4.16,0,0,0,4.26,3,4.27,4.27,0,0,0,4.25-3c.08-.23,4.87-17.2,4.87-17.2a.42.42,0,0,0-.31-.48h-4Z"/><path class="cls-1" d="M53.82.68H10.93A4.41,4.41,0,0,0,6.52,5.09,4.34,4.34,0,0,0,7,7.15l4.28,8.13H3.53A2.86,2.86,0,0,0,.67,18.14,3,3,0,0,0,1,19.48L14.82,45.59a2.85,2.85,0,0,0,3.86,1.19h0a2.9,2.9,0,0,0,1.19-1.19l3.75-7.05,4.7,8.89a4.41,4.41,0,0,0,6,1.84,4.36,4.36,0,0,0,1.84-1.84L57.62,7A4.29,4.29,0,0,0,53.82.68ZM34.55,18,25.29,35.41a1.91,1.91,0,0,1-2.58.8,1.79,1.79,0,0,1-.81-.8L12.75,18a1.91,1.91,0,0,1,.78-2.58,2.13,2.13,0,0,1,.89-.22h18.5a1.85,1.85,0,0,1,1.86,1.85v0a1.68,1.68,0,0,1-.22.87Z"/></svg>