<svg id="Camada_1" data-name="Camada 1" xmlns="http://www.w3.org/2000/svg" viewBox="0 0 200 72.1"><defs><style>.cls-1{fill:#fff;}.cls-1,.cls-2{fill-rule:evenodd;}.cls-2{fill:#e3061a;}</style></defs><path class="cls-1" d="M90.5,7.49c-.29,0-.81.1-1.08.1s-.75-.08-1-.1v14l-12.89-14H74.06V26.74a4.36,4.36,0,0,0,.74-.12,4.43,4.43,0,0,1,1.36.12V12.26l11.93,13c.61.66.89,1,1.21,1.37h1.21V7.49Z"/><path class="cls-1" d="M63,9.37h3.8a35.32,35.32,0,0,1,3.55.38c0-.28-.16-.85-.16-1.14s.12-.74.14-1.06H60.1V26.69H70.52c0-.29-.11-.74-.11-1s.08-.91.11-1.23c-.89.15-3.39.32-4.29.35a29.33,29.33,0,0,1-3.25.06V17.36h2.65c.86,0,3.19.12,4.06.16,0-.3-.08-.59-.11-.9s.08-.88.11-1.1c-.86.08-2.56.16-3.42.16H63Z"/><path class="cls-1" d="M111.8,7.49c-.3,0-.81.1-1.08.1s-.74-.08-1-.1v14l-12.88-14H95.37V26.73q.38,0,.75-.12a4.52,4.52,0,0,1,1.37.12V12.25l11.91,13c.61.67.89,1,1.21,1.37h1.21Z"/><path class="cls-1" d="M119.18,9.37H123a34.81,34.81,0,0,1,3.54.38c0-.28-.15-.85-.15-1.14s.11-.74.13-1.06H116.31V26.69h10.42a8.8,8.8,0,0,1-.1-1c0-.29.08-.91.1-1.23-.89.15-3.38.32-4.29.35a29.33,29.33,0,0,1-3.25.06V17.36h2.65c.86,0,3.19.12,4.06.16,0-.3-.08-.59-.11-.9s.09-.88.11-1.1c-.85.08-2.55.16-3.42.16h-3.29V9.37Z"/><path class="cls-1" d="M46.29,9.08A16.54,16.54,0,0,1,50,9.13a3,3,0,0,1,2.84,3.19A3.71,3.71,0,0,1,49.54,16a13.9,13.9,0,0,1-3.22.11v-7Zm-3,17.65a5.64,5.64,0,0,1,1.42-.12c.3,0,1.49.12,1.49.12V17.57h.64l2.23,2.64,3.17,4c.58.78,1.1,1.64,1.72,2.51.48,0,1.16-.15,1.69-.15s1.49.12,2.12.15l-3.66-4.56-3.82-4.84c2.41-.48,5.4-2.14,5.4-5.41,0-2.83-1.94-4.46-6.27-4.46H43.35V26.73Z"/><path class="cls-1" d="M133,9.08a16.52,16.52,0,0,1,3.72.05,3,3,0,0,1,2.85,3.19A3.72,3.72,0,0,1,136.22,16a14,14,0,0,1-3.23.11v-7Zm-3,17.65a5.72,5.72,0,0,1,1.43-.12c.29,0,1.53.12,1.53.12V17.57h.64l2.23,2.64,3.16,4c.59.78,1.12,1.64,1.73,2.51.48,0,1.16-.15,1.69-.15s1.49.12,2.12.15l-3.66-4.56L137,17.33c2.42-.48,5.4-2.14,5.4-5.38,0-2.83-1.93-4.46-6.27-4.46H130V26.73Z"/><path class="cls-1" d="M.39,17.21A16.6,16.6,0,1,1,17,33.8h0A16.59,16.59,0,0,1,.39,17.21Z"/><path class="cls-2" d="M13.18,7.79c3.76-1,4.28,1.36,4.15,2.62a37.67,37.67,0,0,1-1.23,5.84c2.43-3.55,5.16-8.69,9.14-8.6a4.44,4.44,0,0,1,1.87.42c3.4,2.23.26,6.8-2.31,6.37-1.57-.25-1.85-1.14-2-2.67-.24-.57-1.22-.49-1.77.1a32.42,32.42,0,0,0-4.8,7.53,72.36,72.36,0,0,1-3,6.62,2.17,2.17,0,0,1-1.53.75l-3.6,0c-1.2-.11-.92-.94-.92-.94s4.3-12.87,4.23-13.58c.09-.4,0-1.58-1.16-1-1.49.74-1.54,1.78-3.15,3,0,0-.82.38-.82-.53.57-1.49,3.72-5.1,6.86-5.85Z"/></svg>