<svg width="43" height="43" viewBox="0 0 43 43" fill="none" xmlns="http://www.w3.org/2000/svg">
<path d="M21.5 43C9.66708 43 0 33.3329 0 21.5C0 9.66708 9.66708 0 21.5 0C25.3034 0 29.1069 1.00369 32.3821 2.95823C32.699 3.16953 32.8047 3.59214 32.6462 3.90909C32.4349 4.22604 32.0123 4.3317 31.6953 4.12039C28.6314 2.32432 25.0921 1.37346 21.5 1.37346C10.4066 1.37346 1.37346 10.4066 1.37346 21.5C1.37346 32.5934 10.4066 41.6265 21.5 41.6265C32.5934 41.6265 41.6265 32.5934 41.6265 21.5C41.6265 17.7494 40.57 14.0516 38.6155 10.8821C38.4042 10.5651 38.5098 10.1425 38.8268 9.9312C39.1437 9.7199 39.5663 9.82555 39.7776 10.1425C41.8907 13.5233 43 17.4853 43 21.5C43 33.3329 33.3329 43 21.5 43Z" fill="white"/>
<path d="M21.7113 31.6425C21.5528 31.6425 21.3943 31.5897 21.2359 31.4312L11.8857 22.5565C11.7273 22.4509 11.6744 22.2396 11.6744 22.0811C11.6744 21.9226 11.7273 21.7113 11.8857 21.6057L21.2359 12.6781C21.5 12.414 21.9226 12.414 22.1867 12.6781C22.4509 12.9423 22.4509 13.3649 22.1867 13.629L13.312 22.0283L22.1867 30.4275C22.4509 30.6916 22.4509 31.1143 22.1867 31.3784C22.0811 31.5897 21.9226 31.6425 21.7113 31.6425Z" fill="white"/>
<path d="M28.5258 31.6425C28.3673 31.6425 28.2088 31.5897 28.0503 31.4312L18.6474 22.5565C18.4889 22.4509 18.4361 22.2396 18.4361 22.0811C18.4361 21.9226 18.4889 21.7113 18.6474 21.6057L28.0503 12.6781C28.3145 12.414 28.7371 12.414 29.0012 12.6781C29.2653 12.9423 29.2653 13.3649 29.0012 13.629L20.1265 22.0283L29.0012 30.4275C29.2653 30.6916 29.2653 31.1143 29.0012 31.3784C28.8956 31.5897 28.6843 31.6425 28.5258 31.6425Z" fill="white"/>
<path d="M35.8686 7.23711C35.4988 7.23711 35.1818 6.92016 35.1818 6.55038C35.1818 6.1806 35.4988 5.86365 35.8686 5.86365C36.2383 5.86365 36.5553 6.1806 36.5553 6.55038C36.5553 6.92016 36.2383 7.23711 35.8686 7.23711Z" fill="white"/>
</svg>
