<svg width="43" height="43" viewBox="0 0 43 43" fill="none" xmlns="http://www.w3.org/2000/svg">
<g clip-path="url(#clip0)">
<path d="M21.5 1.87959e-06C33.3329 8.45123e-07 43 9.66708 43 21.5C43 33.3329 33.3329 43 21.5 43C17.6966 43 13.8931 41.9963 10.6179 40.0418C10.301 39.8305 10.1953 39.4079 10.3538 39.0909C10.5651 38.774 10.9877 38.6683 11.3047 38.8796C14.3686 40.6757 17.9079 41.6265 21.5 41.6265C32.5934 41.6265 41.6265 32.5934 41.6265 21.5C41.6265 10.4066 32.5934 1.37346 21.5 1.37346C10.4066 1.37347 1.37346 10.4066 1.37346 21.5C1.37346 25.2506 2.42998 28.9484 4.38452 32.1179C4.59582 32.4349 4.49017 32.8575 4.17322 33.0688C3.85627 33.2801 3.43366 33.1745 3.22236 32.8575C1.10934 29.4767 -1.52861e-06 25.5147 -1.87959e-06 21.5C-2.91406e-06 9.66708 9.66707 2.91406e-06 21.5 1.87959e-06Z" fill="white"/>
<path d="M21.2887 11.3575C21.4472 11.3575 21.6057 11.4103 21.7641 11.5688L31.1143 20.4435C31.2727 20.5491 31.3256 20.7604 31.3256 20.9189C31.3256 21.0774 31.2727 21.2887 31.1143 21.3943L21.7641 30.3219C21.5 30.586 21.0774 30.586 20.8133 30.3219C20.5491 30.0577 20.5491 29.6351 20.8133 29.371L29.688 20.9717L20.8133 12.5725C20.5491 12.3084 20.5491 11.8857 20.8133 11.6216C20.9189 11.4103 21.0774 11.3575 21.2887 11.3575Z" fill="white"/>
<path d="M14.4742 11.3575C14.6327 11.3575 14.7912 11.4103 14.9497 11.5688L24.3526 20.4435C24.5111 20.5491 24.5639 20.7604 24.5639 20.9189C24.5639 21.0774 24.5111 21.2887 24.3526 21.3943L14.9497 30.3219C14.6855 30.586 14.2629 30.586 13.9988 30.3219C13.7347 30.0577 13.7347 29.6351 13.9988 29.371L22.8735 20.9717L13.9988 12.5725C13.7347 12.3084 13.7347 11.8857 13.9988 11.6216C14.1044 11.4103 14.3157 11.3575 14.4742 11.3575Z" fill="white"/>
<path d="M7.13144 35.7629C7.50122 35.7629 7.81818 36.0798 7.81818 36.4496C7.81818 36.8194 7.50122 37.1364 7.13144 37.1364C6.76166 37.1364 6.44471 36.8194 6.44471 36.4496C6.44471 36.0798 6.76166 35.7629 7.13144 35.7629Z" fill="white"/>
</g>
<defs>
<clipPath id="clip0">
<rect width="43" height="43" fill="white" transform="translate(43 43) rotate(180)"/>
</clipPath>
</defs>
</svg>
