<svg width="460" height="56" viewBox="0 0 460 56" fill="none" xmlns="http://www.w3.org/2000/svg">
<g clip-path="url(#clip0)">
<path d="M55.2 11.5999L65.4 36.0999L75.7 11.5999H78.8V39.2999H76.5V27.2999L76.7 14.8999L66.3 39.3999H64.5L54.2 14.9999L54.4 27.1999V39.3999H52.1V11.5999H55.2Z" fill="white"/>
<path d="M103.9 27C103.9 29.6 103.5 31.8 102.6 33.7C101.7 35.6 100.5 37.1 98.8 38.2C97.2 39.2 95.3 39.7999 93.1 39.7999C89.9 39.7999 87.2 38.5999 85.2 36.2999C83.2 34 82.2 30.9 82.2 26.9V24C82.2 21.5 82.6 19.2 83.5 17.3C84.4 15.4 85.7 13.9 87.3 12.8C88.9 11.8 90.8 11.2 93 11.2C95.2 11.2 97 11.7 98.6 12.7C100.2 13.7 101.5 15.2 102.4 17.1C103.3 19 103.8 21.2 103.8 23.6V27H103.9ZM101.5 24C101.5 20.7 100.7 18 99.2 16.1C97.7 14.2 95.6 13.3 93 13.3C90.4 13.3 88.4 14.2 86.8 16.1C85.3 18 84.5 20.7 84.5 24.1V27C84.5 30.3 85.3 32.9 86.8 34.7999C88.3 36.6999 90.4 37.7 93 37.7C95.7 37.7 97.7 36.8 99.2 34.9C100.7 33 101.4 30.4 101.4 27V24H101.5Z" fill="white"/>
<path d="M128 39.3999H125.7L109.8 15.6999V39.3999H107.4V11.5999H109.8L125.8 35.3999V11.5999H128.1V39.3999H128Z" fill="white"/>
<path d="M150.9 13.5999H141.4V39.3999H139V13.5999H129.5V11.5999H150.8V13.5999H150.9Z" fill="white"/>
<path d="M168.2 26.0999H155.2V37.3999H170.1V39.3999H152.8V11.5999H170V13.5999H155.2V24.0999H168.2V26.0999Z" fill="white"/>
<path d="M180.4 39.3999V11.5999H189.9C193 11.5999 195.4 12.1999 197.1 13.4999C198.7 14.7999 199.6 16.5999 199.6 19.0999C199.6 20.3999 199.3 21.4999 198.6 22.4999C197.9 23.4999 196.9 24.2999 195.6 24.8999C197.1 25.2999 198.3 26.0999 199.1 27.1999C199.9 28.2999 200.3 29.6999 200.3 31.1999C200.3 33.7999 199.5 35.7999 197.8 37.1999C196.1 38.5999 193.7 39.2999 190.6 39.2999H180.4V39.3999ZM185.2 23.2999H189.9C191.4 23.2999 192.6 22.9999 193.4 22.2999C194.2 21.5999 194.7 20.6999 194.7 19.3999C194.7 17.9999 194.3 16.9999 193.5 16.3999C192.7 15.7999 191.5 15.4999 189.9 15.4999H185.2V23.2999ZM185.2 26.7999V35.3999H190.6C192.1 35.3999 193.3 34.9999 194.1 34.2999C195 33.5999 195.4 32.4999 195.4 31.1999C195.4 28.2999 193.9 26.8999 191 26.7999H185.2Z" fill="white"/>
<path d="M212.8 28.6999H207.4V39.3999H202.6V11.5999H212.4C215.6 11.5999 218.1 12.2999 219.8 13.7999C221.5 15.1999 222.4 17.2999 222.4 19.9999C222.4 21.8999 222 23.3999 221.1 24.6999C220.2 25.9999 219 26.8999 217.4 27.5999L223.6 39.1999V39.3999H218.4L212.8 28.6999ZM207.4 24.7999H212.4C214 24.7999 215.3 24.3999 216.2 23.5999C217.1 22.7999 217.6 21.6999 217.6 20.1999C217.6 18.6999 217.2 17.5999 216.3 16.7999C215.5 15.9999 214.2 15.5999 212.5 15.4999H207.4V24.7999Z" fill="white"/>
<path d="M240 32.9H229.3L227.1 39.4H222.1L232.6 11.7H236.9L247.4 39.4H242.4L240 32.9ZM230.6 29H238.6L234.6 17.5L230.6 29Z" fill="white"/>
<path d="M256.1 33.2999L263.1 11.5999H268.4L258.4 39.2999H253.7L243.8 11.5999H249.1L256.1 33.2999Z" fill="white"/>
<path d="M291.1 26.2C291.1 28.9 290.6 31.3 289.7 33.4C288.8 35.5 287.4 36.9999 285.7 38.0999C284 39.1999 281.9 39.7 279.7 39.7C277.5 39.7 275.4 39.1999 273.7 38.0999C271.9 36.9999 270.6 35.4 269.6 33.4C268.6 31.4 268.2 29 268.1 26.4V24.8C268.1 22.1 268.6 19.7 269.5 17.6C270.5 15.5 271.8 13.9 273.6 12.8C275.3 11.7 277.4 11.2 279.6 11.2C281.9 11.2 283.9 11.7 285.6 12.8C287.3 13.9 288.7 15.4 289.6 17.5C290.6 19.5 291 21.9 291 24.6V26.2H291.1ZM286.2 24.8C286.2 21.7 285.6 19.4 284.5 17.7C283.3 16.1 281.7 15.2 279.6 15.2C277.5 15.2 275.9 16 274.7 17.6C273.5 19.2 272.9 21.5 272.9 24.5V26.1C272.9 29.1 273.5 31.5 274.7 33.2C275.9 34.9 277.5 35.7 279.6 35.7C281.7 35.7 283.4 34.9 284.5 33.2999C285.6 31.6999 286.2 29.3 286.2 26.2V24.8Z" fill="white"/>
<path d="M19.8 11.3998H3.6C1.2 11.2998 -2.1 13.1998 1.8 15.0998L19.8 23.8998C20.4 20.4998 21.5 15.7998 19.8 11.3998Z" fill="white"/>
<path d="M42 11.3998H20.6C20.6 11.3998 22.8 16.1998 21.7 24.8998C21.7 25.1998 21.6 25.3998 21.6 25.6998C21.6 25.9998 21.5 26.2998 21.5 26.4998C20.9 30.1998 19.8 34.4998 17.7 39.2998C17.7 39.2998 17.7 39.2998 17.8 39.2998C16.3 43.7998 19 46.1998 21.5 43.2998L45 15.1998C47.9 11.7998 44.9 11.2998 42 11.3998Z" fill="white"/>
<path d="M372.7 38.7999C372.6 38.5999 372.5 38.4 372.4 38.2C372.3 38 372.1 37.7 372 37.5C371.8 37.2 371.7 37 371.5 36.7C371.3 36.4 371.2 36.2 371 36C370.8 36.2 370.7 36.5 370.5 36.7C370.3 37 370.2 37.2 370 37.5C369.8 37.7 369.7 38 369.6 38.2C369.5 38.4 369.3 38.5999 369.3 38.7999H368.3C368.6 38.1999 368.9 37.6999 369.3 37.0999C369.7 36.4999 370.1 35.8999 370.5 35.2999L368.4 32.2H369.5L371.1 34.7L372.7 32.2H373.8L371.7 35.2999C372.1 35.8999 372.5 36.4999 372.9 37.0999C373.3 37.6999 373.6 38.2999 373.9 38.7999H372.7Z" fill="white"/>
<path d="M376.5 33C376.1 33 375.8 33 375.6 33V35.5999H376.3C376.6 35.5999 376.9 35.6 377.2 35.5C377.5 35.5 377.7 35.3999 377.8 35.2999C378 35.1999 378.1 35.1 378.2 34.9C378.3 34.7 378.3 34.5 378.3 34.2C378.3 33.9 378.3 33.6999 378.2 33.5999C378.1 33.3999 378 33.3 377.8 33.2C377.6 33.1 377.4 33 377.2 33C376.9 33 376.7 33 376.5 33ZM376.4 32.2C377.3 32.2 378 32.4 378.5 32.7C379 33.1 379.2 33.5999 379.2 34.2999C379.2 34.6999 379.1 34.9999 379 35.2999C378.9 35.5999 378.7 35.8 378.4 36C378.1 36.2 377.8 36.3 377.5 36.4C377.1 36.5 376.7 36.5 376.3 36.5H375.6V38.9H374.7V32.4C375 32.3 375.3 32.2999 375.6 32.2999C375.8 32.1999 376.1 32.2 376.4 32.2Z" fill="white"/>
<path d="M382.3 32.2H383.3V38.7999H382.3V32.2Z" fill="white"/>
<path d="M384.7 34C384.9 33.9 385.2 33.8999 385.5 33.7999C385.8 33.6999 386.2 33.7 386.7 33.7C387.1 33.7 387.4 33.8 387.7 33.9C388 34 388.2 34.2 388.3 34.4C388.5 34.6 388.6 34.7999 388.6 35.0999C388.7 35.3999 388.7 35.7 388.7 36V38.7999H387.8V36.2C387.8 35.9 387.8 35.6 387.7 35.4C387.7 35.2 387.6 35 387.5 34.9C387.4 34.8 387.3 34.6999 387.1 34.5999C386.9 34.4999 386.7 34.5 386.5 34.5C386.4 34.5 386.3 34.5 386.2 34.5C386.1 34.5 386 34.5 385.9 34.5C385.8 34.5 385.7 34.5 385.6 34.5C385.5 34.5 385.5 34.5 385.4 34.5V38.7H384.5V34H384.7Z" fill="white"/>
<path d="M393.7 33.8999C393.4 34.7999 393.2 35.6999 392.8 36.5999C392.5 37.4999 392.1 38.1999 391.8 38.8999H391C390.7 38.1999 390.4 37.4999 390 36.5999C389.7 35.6999 389.4 34.8999 389.1 33.8999H390.1C390.2 34.1999 390.3 34.4999 390.4 34.8999C390.5 35.2999 390.6 35.5999 390.7 35.8999C390.8 36.1999 390.9 36.5999 391.1 36.8999C391.2 37.1999 391.3 37.4999 391.4 37.7999C391.5 37.4999 391.6 37.2999 391.7 36.8999C391.8 36.5999 391.9 36.1999 392.1 35.8999C392.2 35.5999 392.3 35.1999 392.4 34.8999C392.5 34.4999 392.6 34.1999 392.7 33.8999H393.7Z" fill="white"/>
<path d="M397.5 35.9001C397.5 35.5001 397.4 35.2001 397.2 34.9001C397 34.6001 396.7 34.5 396.3 34.5C396.1 34.5 395.9 34.5 395.8 34.6C395.6 34.7 395.5 34.8001 395.4 34.9001C395.3 35.0001 395.2 35.2 395.1 35.3C395 35.5 395 35.6 395 35.8H397.5V35.9001ZM394.1 36.4001C394.1 36.0001 394.2 35.6 394.3 35.3C394.4 35 394.6 34.7 394.8 34.5C395 34.3 395.3 34.1 395.5 34C395.8 33.9 396.1 33.8 396.3 33.8C397 33.8 397.5 34.0001 397.8 34.4001C398.2 34.8001 398.3 35.5 398.3 36.3V36.4001C398.3 36.5001 398.3 36.5 398.3 36.6H395C395 37.1 395.2 37.5 395.5 37.8C395.8 38.1 396.2 38.2001 396.7 38.2001C397 38.2001 397.3 38.2 397.5 38.1C397.7 38 397.9 38.0001 398 37.9001L398.1 38.6C398 38.7 397.8 38.7 397.5 38.8C397.2 38.9 396.9 38.9001 396.6 38.9001C396.2 38.9001 395.8 38.8001 395.5 38.7001C395.2 38.6001 394.9 38.4001 394.7 38.2001C394.5 38.0001 394.3 37.7001 394.2 37.4001C394.2 37.1001 394.1 36.7001 394.1 36.4001Z" fill="white"/>
<path d="M400.7 38.2001C401.1 38.2001 401.3 38.2 401.5 38.1C401.7 38 401.8 37.9 401.8 37.6C401.8 37.4 401.7 37.2 401.5 37.1C401.3 37 401 36.8001 400.7 36.7001C400.5 36.6001 400.3 36.5 400.1 36.5C399.9 36.4 399.8 36.3001 399.6 36.2001C399.5 36.1001 399.4 36 399.3 35.8C399.2 35.6 399.2 35.5001 399.2 35.2001C399.2 34.8001 399.4 34.4001 399.7 34.2001C400 33.9001 400.5 33.8 401 33.8C401.1 33.8 401.3 33.8 401.4 33.8C401.5 33.8 401.7 33.8001 401.8 33.9001C401.9 33.9001 402 33.9 402.1 34C402.2 34 402.3 34 402.3 34.1L402.1 34.9001C402 34.8001 401.9 34.8001 401.6 34.7001C401.4 34.6001 401.2 34.6 400.9 34.6C400.7 34.6 400.4 34.6001 400.3 34.7001C400.1 34.8001 400 35.0001 400 35.2001C400 35.3001 400 35.4 400.1 35.5C400.1 35.6 400.2 35.7001 400.3 35.7001C400.4 35.8001 400.5 35.8001 400.6 35.9001C400.7 36.0001 400.9 36 401.1 36.1C401.3 36.2 401.5 36.3001 401.7 36.4001C401.9 36.5001 402 36.6001 402.2 36.7001C402.3 36.8001 402.4 37 402.5 37.1C402.6 37.3 402.6 37.5001 402.6 37.7001C402.6 38.2001 402.4 38.5001 402.1 38.7001C401.8 38.9001 401.3 39.1 400.6 39.1C400.2 39.1 399.8 39.1 399.6 39C399.3 38.9 399.2 38.9 399.1 38.8L399.3 38C399.4 38 399.6 38.1001 399.8 38.2001C400.1 38.2001 400.4 38.2001 400.7 38.2001Z" fill="white"/>
<path d="M404.5 33.8999H406.4V34.5999H404.5V36.8999C404.5 37.0999 404.5 37.3999 404.6 37.4999C404.6 37.6999 404.7 37.7999 404.8 37.8999C404.9 37.9999 405 38.0999 405.1 38.0999C405.2 38.0999 405.3 38.1999 405.5 38.1999C405.8 38.1999 406 38.1999 406.1 38.0999C406.3 37.9999 406.4 37.9999 406.4 37.9999L406.6 38.6999C406.5 38.6999 406.4 38.7999 406.1 38.8999C405.9 38.9999 405.6 38.9999 405.3 38.9999C405 38.9999 404.7 38.9999 404.5 38.8999C404.3 38.7999 404.1 38.6999 404 38.4999C403.9 38.2999 403.8 38.0999 403.7 37.8999C403.6 37.6999 403.6 37.3999 403.6 36.9999V32.5999L404.5 32.3999V33.8999Z" fill="white"/>
<path d="M408.2 38.8H407.3V33.8H408.2V38.8ZM407.8 33C407.6 33 407.5 32.9 407.4 32.8C407.3 32.7 407.2 32.6001 407.2 32.4001C407.2 32.2001 407.3 32.1 407.4 32C407.5 31.9 407.7 31.8 407.8 31.8C408 31.8 408.1 31.9 408.2 32C408.3 32.1 408.4 32.2001 408.4 32.4001C408.4 32.6001 408.3 32.7 408.2 32.8C408.1 32.9 408 33 407.8 33Z" fill="white"/>
<path d="M409.6 34C409.8 33.9 410.1 33.8999 410.4 33.7999C410.7 33.6999 411.1 33.7 411.6 33.7C411.9 33.7 412.2 33.6999 412.4 33.7999C412.6 33.8999 412.8 34 412.9 34.2C412.9 34.2 413 34.0999 413.1 34.0999C413.2 33.9999 413.3 34 413.5 33.9C413.6 33.8 413.8 33.7999 414 33.7999C414.2 33.7999 414.4 33.7 414.5 33.7C414.9 33.7 415.2 33.8 415.4 33.9C415.6 34 415.8 34.2 416 34.4C416.1 34.6 416.2 34.7999 416.3 35.0999C416.3 35.3999 416.4 35.7 416.4 36V38.7999H415.5V36.2C415.5 35.9 415.5 35.7 415.5 35.4C415.5 35.2 415.4 35 415.3 34.9C415.2 34.8 415.1 34.6999 415 34.5999C414.9 34.4999 414.7 34.5 414.5 34.5C414.2 34.5 414 34.4999 413.8 34.5999C413.6 34.6999 413.5 34.7999 413.4 34.7999C413.5 34.9999 413.5 35.0999 413.5 35.2999C413.5 35.4999 413.5 35.7 413.5 35.9V38.7H412.6V36.0999C412.6 35.7999 412.6 35.5999 412.5 35.2999C412.5 35.0999 412.4 34.8999 412.3 34.7999C412.2 34.6999 412.1 34.6 412 34.5C411.9 34.4 411.7 34.4 411.5 34.4C411.4 34.4 411.3 34.4 411.2 34.4C411.1 34.4 411 34.4 410.9 34.4C410.8 34.4 410.7 34.4 410.6 34.4C410.5 34.4 410.5 34.4 410.4 34.4V38.5999H409.5V34H409.6Z" fill="white"/>
<path d="M420.8 35.9001C420.8 35.5001 420.7 35.2001 420.5 34.9001C420.3 34.6001 420 34.5 419.6 34.5C419.4 34.5 419.2 34.5 419.1 34.6C418.9 34.7 418.8 34.8001 418.7 34.9001C418.6 35.0001 418.5 35.2 418.4 35.3C418.3 35.5 418.3 35.6 418.3 35.8H420.8V35.9001ZM417.4 36.4001C417.4 36.0001 417.5 35.6 417.6 35.3C417.7 35 417.9 34.7 418.1 34.5C418.3 34.3 418.6 34.1 418.8 34C419.1 33.9 419.4 33.8 419.6 33.8C420.3 33.8 420.8 34.0001 421.1 34.4001C421.5 34.8001 421.6 35.5 421.6 36.3V36.4001C421.6 36.5001 421.6 36.5 421.6 36.6H418.2C418.2 37.1 418.4 37.5 418.7 37.8C419 38.1 419.4 38.2001 419.9 38.2001C420.2 38.2001 420.5 38.2 420.7 38.1C420.9 38 421.1 38.0001 421.2 37.9001L421.3 38.6C421.2 38.7 421 38.7 420.7 38.8C420.4 38.9 420.1 38.9001 419.8 38.9001C419.4 38.9001 419 38.8001 418.7 38.7001C418.4 38.6001 418.1 38.4001 417.9 38.2001C417.7 38.0001 417.5 37.7001 417.4 37.4001C417.5 37.1001 417.4 36.7001 417.4 36.4001Z" fill="white"/>
<path d="M422.9 34C423.1 33.9 423.4 33.8999 423.7 33.7999C424 33.6999 424.4 33.7 424.9 33.7C425.3 33.7 425.6 33.8 425.9 33.9C426.2 34 426.4 34.2 426.5 34.4C426.7 34.6 426.8 34.7999 426.8 35.0999C426.9 35.3999 426.9 35.7 426.9 36V38.7999H426V36.2C426 35.9 426 35.6 425.9 35.4C425.9 35.2 425.8 35 425.7 34.9C425.6 34.8 425.5 34.6999 425.3 34.5999C425.1 34.4999 424.9 34.5 424.7 34.5C424.6 34.5 424.5 34.5 424.4 34.5C424.3 34.5 424.2 34.5 424.1 34.5C424 34.5 423.9 34.5 423.8 34.5C423.7 34.5 423.7 34.5 423.6 34.5V38.7H422.7V34H422.9Z" fill="white"/>
<path d="M429 33.8999H430.9V34.5999H429V36.8999C429 37.0999 429 37.3999 429.1 37.4999C429.1 37.6999 429.2 37.7999 429.3 37.8999C429.4 37.9999 429.5 38.0999 429.6 38.0999C429.7 38.0999 429.8 38.1999 430 38.1999C430.3 38.1999 430.5 38.1999 430.6 38.0999C430.8 37.9999 430.9 37.9999 430.9 37.9999L431.1 38.6999C431 38.6999 430.9 38.7999 430.6 38.8999C430.4 38.9999 430.1 38.9999 429.8 38.9999C429.5 38.9999 429.2 38.9999 429 38.8999C428.8 38.7999 428.6 38.6999 428.5 38.4999C428.4 38.2999 428.3 38.0999 428.2 37.8999C428.1 37.6999 428.1 37.3999 428.1 36.9999V32.5999L429 32.3999V33.8999Z" fill="white"/>
<path d="M435.2 36.4001C435.2 35.8001 435.1 35.4 434.8 35.1C434.5 34.8 434.2 34.6 433.8 34.6C433.4 34.6 433 34.8 432.8 35.1C432.5 35.4 432.4 35.9001 432.4 36.4001C432.4 37.0001 432.5 37.4001 432.8 37.7001C433.1 38.0001 433.4 38.2001 433.8 38.2001C434.2 38.2001 434.6 38.0001 434.8 37.7001C435.1 37.4001 435.2 36.9001 435.2 36.4001ZM436.1 36.4001C436.1 36.8001 436 37.2 435.9 37.5C435.8 37.8 435.6 38.1 435.4 38.3C435.2 38.5 434.9 38.7 434.7 38.8C434.5 38.9 434.1 39 433.8 39C433.5 39 433.2 38.9 432.9 38.8C432.6 38.7 432.4 38.5 432.2 38.3C432 38.1 431.8 37.8 431.7 37.5C431.6 37.2 431.5 36.8001 431.5 36.4001C431.5 36.0001 431.6 35.7 431.7 35.3C431.8 35 432 34.7 432.2 34.5C432.4 34.3 432.7 34.1 432.9 34C433.2 33.9 433.5 33.8 433.8 33.8C434.1 33.8 434.4 33.9 434.7 34C435 34.1 435.2 34.3 435.4 34.5C435.6 34.7 435.8 35 435.9 35.3C436.1 35.6 436.1 36.0001 436.1 36.4001Z" fill="white"/>
<path d="M438.4 38.2001C438.8 38.2001 439 38.2 439.2 38.1C439.4 38 439.5 37.9 439.5 37.6C439.5 37.4 439.4 37.2 439.2 37.1C439 37 438.7 36.8001 438.4 36.7001C438.2 36.6001 438 36.5 437.8 36.5C437.6 36.4 437.5 36.3001 437.3 36.2001C437.2 36.1001 437.1 36 437 35.8C436.9 35.6 436.9 35.5001 436.9 35.2001C436.9 34.8001 437.1 34.4001 437.4 34.2001C437.7 33.9001 438.2 33.8 438.7 33.8C438.8 33.8 439 33.8 439.1 33.8C439.2 33.8 439.4 33.8001 439.5 33.9001C439.6 33.9001 439.7 33.9 439.8 34C439.9 34 440 34 440 34.1L439.8 34.9001C439.7 34.8001 439.6 34.8001 439.3 34.7001C439.1 34.6001 438.9 34.6 438.6 34.6C438.4 34.6 438.1 34.6001 438 34.7001C437.8 34.8001 437.7 35.0001 437.7 35.2001C437.7 35.3001 437.7 35.4 437.8 35.5C437.8 35.6 437.9 35.7001 438 35.7001C438.1 35.8001 438.2 35.8001 438.3 35.9001C438.4 36.0001 438.6 36 438.8 36.1C439 36.2 439.2 36.3001 439.4 36.4001C439.6 36.5001 439.7 36.6001 439.9 36.7001C440 36.8001 440.1 37 440.2 37.1C440.3 37.3 440.3 37.5001 440.3 37.7001C440.3 38.2001 440.1 38.5001 439.8 38.7001C439.5 38.9001 439 39.1 438.3 39.1C437.9 39.1 437.5 39.1 437.3 39C437.1 38.9 436.9 38.9 436.8 38.8L437 38C437.1 38 437.3 38.1001 437.5 38.2001C437.7 38.2001 438 38.2001 438.4 38.2001Z" fill="white"/>
<path d="M428.4 11.5L427.9 12L427 11.2L426.1 12L425.6 11.5L427 10.2L428.4 11.5Z" fill="white"/>
<path d="M428.8 16.8C428.7 17.1 428.6 17.3 428.4 17.6C428.2 17.8 428 18 427.8 18.1C427.6 18.2 427.3 18.3 427 18.3C426.7 18.3 426.4 18.2 426.2 18.1C426 18 425.8 17.8 425.6 17.6C425.4 17.4 425.3 17.1 425.2 16.8C425.1 16.5 425.1 16.2 425.1 15.8C425.1 15.4 425.1 15.1 425.2 14.8C425.3 14.5 425.4 14.3 425.6 14C425.8 13.8 426 13.6 426.2 13.5C426.4 13.4 426.7 13.3 427 13.3C427.3 13.3 427.6 13.4 427.8 13.5C428 13.6 428.2 13.8 428.4 14C428.6 14.2 428.7 14.5 428.8 14.8C428.9 15.1 428.9 15.4 428.9 15.8C428.9 16.2 428.9 16.5 428.8 16.8ZM429.9 14.3C429.7 13.9 429.5 13.5 429.2 13.2C428.9 12.9 428.6 12.7 428.2 12.5C427.8 12.4 427.4 12.3 427 12.3C426.6 12.3 426.2 12.4 425.8 12.5C425.4 12.6 425.1 12.9 424.8 13.2C424.5 13.5 424.3 13.9 424.1 14.3C423.9 14.7 423.8 15.2 423.8 15.8C423.8 16.4 423.9 16.9 424.1 17.3C424.3 17.7 424.5 18.1 424.8 18.4C425.1 18.7 425.4 18.9 425.8 19.1C426.2 19.2 426.6 19.3 427 19.3C427.4 19.3 427.8 19.2 428.2 19.1C428.6 19 428.9 18.7 429.2 18.4C429.5 18.1 429.7 17.8 429.9 17.3C430.1 16.9 430.2 16.4 430.2 15.8C430.2 15.2 430.1 14.7 429.9 14.3Z" fill="white"/>
<path d="M370.7 13.8C370.6 14.1 370.4 14.5 370.2 15C370 15.5 369.8 16 369.6 16.6H371.8C371.6 16 371.4 15.5 371.2 15C371 14.5 370.8 14.1 370.7 13.8ZM372.6 19.1C372.5 18.8 372.4 18.6 372.3 18.3C372.2 18 372.1 17.8 372 17.5H369.2C369.1 17.8 369 18 368.9 18.3C368.8 18.6 368.7 18.8 368.6 19.1H367.4C367.6 18.4 367.9 17.7 368.1 17.1C368.3 16.5 368.5 15.9 368.8 15.4C369 14.9 369.2 14.4 369.4 13.9C369.6 13.4 369.8 12.9 370 12.5H371.1C371.3 13 371.5 13.4 371.7 13.9C371.9 14.4 372.1 14.9 372.3 15.4C372.5 15.9 372.7 16.5 373 17.1C373.2 17.7 373.5 18.4 373.7 19.1H372.6Z" fill="white"/>
<path d="M377.5 13.4C376.8 13.4 376.3 13.6 375.9 14C375.5 14.4 375.4 15 375.4 15.8C375.4 16.2 375.4 16.5 375.5 16.8C375.6 17.1 375.7 17.3 375.9 17.6C376.1 17.8 376.3 18 376.5 18.1C376.8 18.2 377 18.3 377.4 18.3C377.6 18.3 377.8 18.3 377.9 18.3C378.1 18.3 378.2 18.3 378.3 18.2V15.8H379.5V19C379.3 19.1 379.1 19.1 378.7 19.2C378.3 19.3 377.9 19.3 377.3 19.3C376.8 19.3 376.4 19.2 376 19.1C375.6 18.9 375.3 18.7 375 18.4C374.7 18.1 374.5 17.7 374.4 17.3C374.2 16.9 374.2 16.4 374.2 15.8C374.2 15.2 374.3 14.8 374.5 14.3C374.7 13.9 374.9 13.5 375.2 13.2C375.5 12.9 375.8 12.7 376.2 12.5C376.6 12.3 377 12.3 377.5 12.3C377.8 12.3 378.1 12.3 378.3 12.4C378.5 12.4 378.7 12.5 378.9 12.5C379.1 12.6 379.2 12.6 379.3 12.7C379.4 12.8 379.5 12.8 379.5 12.8L379.1 13.8C378.9 13.7 378.7 13.6 378.4 13.5C378.2 13.4 377.9 13.4 377.5 13.4Z" fill="white"/>
<path d="M380.8 19.1V12.5H385.1V13.5H382V15.1H384.7V16.1H382V18.1H385.3V19.1H380.8Z" fill="white"/>
<path d="M390.7 19.1C390.5 18.7 390.2 18.4 390 17.9C389.7 17.5 389.5 17.1 389.2 16.6C388.9 16.2 388.6 15.8 388.3 15.4C388 15 387.7 14.6 387.5 14.3V19H386.3V12.4H387.3C387.6 12.7 387.8 13 388.1 13.3C388.4 13.7 388.7 14 389 14.4C389.3 14.8 389.6 15.2 389.9 15.6C390.2 16 390.4 16.4 390.6 16.7V12.3H391.8V18.9H390.7V19.1Z" fill="white"/>
<path d="M397.8 12.5V13.5H395.7V19.1H394.5V13.5H392.5V12.5H397.8Z" fill="white"/>
<path d="M398.5 19.1V12.5H402.8V13.5H399.7V15.1H402.5V16.1H399.7V18.1H403V19.1H398.5Z" fill="white"/>
<path d="M408.5 13.8C408.4 14.1 408.2 14.5 408 15C407.8 15.5 407.6 16 407.4 16.6H409.6C409.4 16 409.2 15.5 409 15C408.8 14.5 408.6 14.1 408.5 13.8ZM410.5 19.1C410.4 18.8 410.3 18.6 410.2 18.3C410.1 18 410 17.8 409.9 17.5H407.1C407 17.8 406.9 18 406.8 18.3C406.7 18.6 406.6 18.8 406.5 19.1H405.3C405.6 18.4 405.8 17.7 406 17.1C406.2 16.5 406.4 15.9 406.6 15.4C406.8 14.9 407 14.4 407.2 13.9C407.4 13.4 407.6 12.9 407.8 12.5H408.9C409.1 13 409.3 13.4 409.5 13.9C409.7 14.4 409.9 14.9 410.1 15.4C410.3 15.9 410.5 16.5 410.8 17.1C411 17.7 411.3 18.4 411.5 19.1H410.5Z" fill="white"/>
<path d="M414.9 19.2001C414.4 19.2001 414.1 19.1001 413.7 19.0001C413.4 18.9001 413.1 18.7001 412.9 18.5001C412.7 18.3001 412.5 18.0001 412.4 17.7001C412.3 17.4001 412.2 17.0001 412.2 16.7001V12.6001H413.4V16.6001C413.4 16.9001 413.4 17.2001 413.5 17.4001C413.6 17.6001 413.7 17.8001 413.8 17.9001C413.9 18.0001 414.1 18.1001 414.2 18.2001C414.4 18.3001 414.6 18.3001 414.8 18.3001C415 18.3001 415.2 18.3001 415.4 18.2001C415.6 18.1001 415.7 18.0001 415.8 17.9001C415.9 17.8001 416 17.6001 416.1 17.4001C416.2 17.2001 416.2 16.9001 416.2 16.6001V12.6001H417.4V16.7001C417.4 17.1001 417.3 17.4001 417.2 17.7001C417.1 18.0001 416.9 18.3001 416.7 18.5001C416.5 18.7001 416.2 18.9001 415.9 19.0001C415.7 19.2001 415.4 19.2001 414.9 19.2001Z" fill="white"/>
<path d="M423.5 12.5V13.5H421.5V19.1H420.3V13.5H418.2V12.5H423.5Z" fill="white"/>
<path d="M435.8 19.1C435.6 18.7 435.3 18.4 435.1 17.9C434.8 17.5 434.6 17.1 434.3 16.6C434 16.2 433.7 15.8 433.4 15.4C433.1 15 432.8 14.6 432.6 14.3V19H431.4V12.4H432.4C432.7 12.7 432.9 13 433.2 13.3C433.5 13.7 433.8 14 434.1 14.4C434.4 14.8 434.7 15.2 435 15.6C435.3 16 435.5 16.4 435.7 16.7V12.3H436.9V18.9H435.8V19.1Z" fill="white"/>
<path d="M439.3 15.8C439.3 16.2 439.3 16.5 439.4 16.8C439.5 17.1 439.6 17.3 439.8 17.6C440 17.8 440.2 18 440.4 18.1C440.6 18.2 440.9 18.3 441.2 18.3C441.5 18.3 441.8 18.2 442 18.1C442.2 18 442.4 17.8 442.6 17.6C442.8 17.4 442.9 17.1 443 16.8C443.1 16.5 443.1 16.2 443.1 15.8C443.1 15.4 443.1 15.1 443 14.8C442.9 14.5 442.8 14.3 442.6 14C442.4 13.8 442.2 13.6 442 13.5C441.8 13.4 441.5 13.3 441.2 13.3C440.9 13.3 440.6 13.4 440.4 13.5C440.2 13.6 440 13.8 439.8 14C439.6 14.2 439.5 14.5 439.4 14.8C439.3 15.1 439.3 15.4 439.3 15.8ZM444.4 15.8C444.4 16.4 444.3 16.9 444.1 17.3C443.9 17.7 443.7 18.1 443.4 18.4C443.1 18.7 442.8 18.9 442.4 19.1C442 19.2 441.6 19.3 441.2 19.3C440.8 19.3 440.4 19.2 440 19.1C439.6 19 439.3 18.7 439 18.4C438.7 18.1 438.5 17.8 438.3 17.3C438.1 16.9 438 16.4 438 15.8C438 15.2 438.1 14.7 438.3 14.3C438.5 13.9 438.7 13.5 439 13.2C439.3 12.9 439.6 12.7 440 12.5C440.4 12.4 440.8 12.3 441.2 12.3C441.6 12.3 442 12.4 442.4 12.5C442.8 12.6 443.1 12.9 443.4 13.2C443.7 13.5 443.9 13.9 444.1 14.3C444.3 14.7 444.4 15.2 444.4 15.8Z" fill="white"/>
<path d="M447 12.5C447.1 12.7 447.3 13 447.5 13.4C447.7 13.8 447.8 14.1 448 14.5C448.2 14.9 448.4 15.3 448.5 15.7C448.7 16.1 448.8 16.5 449 16.8C449.1 16.5 449.3 16.1 449.5 15.7C449.7 15.3 449.8 14.9 450 14.5C450.2 14.1 450.4 13.7 450.5 13.4C450.7 13 450.8 12.8 451 12.5H452.1C452.2 13 452.2 13.5 452.3 14C452.4 14.5 452.4 15.1 452.4 15.7C452.4 16.3 452.5 16.8 452.5 17.4C452.5 18 452.6 18.5 452.6 19.1H451.4C451.4 18.3 451.3 17.5 451.3 16.7C451.3 15.9 451.2 15.1 451.1 14.3C451 14.4 450.9 14.6 450.9 14.8C450.8 15 450.7 15.2 450.6 15.5C450.5 15.7 450.4 16 450.3 16.2C450.2 16.5 450.1 16.7 450 16.9C449.9 17.1 449.8 17.4 449.7 17.6C449.6 17.8 449.5 18 449.5 18.1H448.6C448.5 18 448.5 17.8 448.4 17.6C448.3 17.4 448.2 17.2 448.1 16.9C448 16.7 447.9 16.4 447.8 16.2C447.7 15.9 447.6 15.7 447.5 15.5C447.4 15.3 447.3 15 447.2 14.8C447.1 14.6 447 14.4 447 14.3C446.9 15.1 446.9 15.9 446.8 16.7C446.8 17.5 446.7 18.3 446.7 19.1H445.5C445.5 18.6 445.6 18 445.6 17.4C445.6 16.8 445.7 16.2 445.7 15.7C445.7 15.1 445.8 14.6 445.8 14C445.9 13.5 445.9 13 446 12.5H447Z" fill="white"/>
<path d="M454.8 15.8C454.8 16.2 454.8 16.5 454.9 16.8C455 17.1 455.1 17.3 455.3 17.6C455.5 17.8 455.7 18 455.9 18.1C456.1 18.2 456.4 18.3 456.7 18.3C457 18.3 457.3 18.2 457.5 18.1C457.7 18 457.9 17.8 458.1 17.6C458.3 17.4 458.4 17.1 458.5 16.8C458.6 16.5 458.6 16.2 458.6 15.8C458.6 15.4 458.6 15.1 458.5 14.8C458.4 14.5 458.3 14.3 458.1 14C457.9 13.8 457.7 13.6 457.5 13.5C457.3 13.4 457 13.3 456.7 13.3C456.4 13.3 456.1 13.4 455.9 13.5C455.7 13.6 455.4 13.8 455.3 14C455.1 14.2 455 14.5 454.9 14.8C454.9 15.1 454.8 15.4 454.8 15.8ZM460 15.8C460 16.4 459.9 16.9 459.7 17.3C459.5 17.7 459.3 18.1 459 18.4C458.7 18.7 458.4 18.9 458 19.1C457.6 19.2 457.2 19.3 456.8 19.3C456.4 19.3 455.9 19.2 455.6 19.1C455.2 19 454.9 18.7 454.6 18.4C454.3 18.1 454.1 17.8 453.9 17.3C453.7 16.9 453.6 16.4 453.6 15.8C453.6 15.2 453.7 14.7 453.9 14.3C454.1 13.9 454.3 13.5 454.6 13.2C454.9 12.9 455.2 12.7 455.6 12.5C456 12.4 456.4 12.3 456.8 12.3C457.2 12.3 457.6 12.4 458 12.5C458.4 12.6 458.7 12.9 459 13.2C459.3 13.5 459.5 13.9 459.7 14.3C459.9 14.7 460 15.2 460 15.8Z" fill="white"/>
<path d="M369.4 27.6001C369.5 27.6001 369.6 27.6001 369.7 27.6001C369.8 27.6001 370 27.6001 370.2 27.6001C371 27.6001 371.6 27.4001 372 27.0001C372.4 26.6001 372.6 26.0001 372.6 25.3001C372.6 24.6001 372.4 24.0001 372 23.6001C371.6 23.2001 371 23.0001 370.2 23.0001C369.8 23.0001 369.6 23.0001 369.4 23.0001V27.6001ZM373.9 25.3001C373.9 25.9001 373.8 26.4001 373.6 26.8001C373.4 27.2001 373.2 27.6001 372.8 27.9001C372.5 28.2001 372.1 28.4001 371.6 28.5001C371.1 28.6001 370.6 28.7001 370.1 28.7001C369.8 28.7001 369.5 28.7001 369.2 28.7001C368.9 28.7001 368.5 28.6001 368.2 28.6001V22.2001C368.5 22.1001 368.8 22.1001 369.2 22.1001C369.5 22.1001 369.8 22.1001 370.1 22.1001C370.7 22.1001 371.2 22.2001 371.6 22.3001C372.1 22.4001 372.4 22.6001 372.8 22.9001C373.1 23.2001 373.4 23.5001 373.6 23.9001C373.8 24.2001 373.9 24.7001 373.9 25.3001Z" fill="white"/>
<path d="M375 28.6V22H379.3V23H376.2V24.6H378.9V25.6H376.2V27.6H379.5V28.6H375Z" fill="white"/>
<path d="M382.5 22H383.7V28.6H382.5V22Z" fill="white"/>
<path d="M389.6 28.6C389.4 28.2 389.1 27.9 388.9 27.4C388.6 27 388.4 26.6 388.1 26.1C387.8 25.7 387.5 25.3 387.2 24.9C386.9 24.5 386.6 24.1 386.4 23.8V28.5H385.2V22H386.2C386.5 22.3 386.7 22.6 387 22.9C387.3 23.3 387.6 23.6 387.9 24C388.2 24.4 388.5 24.8 388.8 25.2C389.1 25.6 389.3 26 389.5 26.3V22H390.7V28.6H389.6Z" fill="white"/>
<path d="M394 28.6C393.5 27.6 393.1 26.5 392.6 25.4C392.2 24.3 391.7 23.2 391.4 22H392.7C392.9 22.4 393 22.9 393.2 23.4C393.4 23.9 393.5 24.3 393.7 24.8C393.9 25.2 394 25.7 394.2 26.1C394.4 26.5 394.5 26.9 394.7 27.3C394.8 26.9 395 26.6 395.2 26.2C395.4 25.8 395.5 25.4 395.7 24.9C395.9 24.5 396 24 396.2 23.5C396.4 23 396.5 22.6 396.7 22.1H398C397.6 23.2 397.2 24.3 396.8 25.5C396.4 26.6 395.9 27.7 395.4 28.7H394V28.6Z" fill="white"/>
<path d="M398.5 28.6V22H402.7V23H399.7V24.6H402.4V25.6H399.7V27.6H402.9V28.6H398.5Z" fill="white"/>
<path d="M405.5 27.6999C405.9 27.6999 406.2 27.5999 406.4 27.4999C406.6 27.3999 406.7 27.0999 406.7 26.8999C406.7 26.6999 406.7 26.5999 406.6 26.4999C406.5 26.3999 406.4 26.2999 406.3 26.1999C406.2 26.0999 406 25.9999 405.8 25.8999C405.6 25.7999 405.4 25.6999 405.2 25.6999C405 25.5999 404.7 25.4999 404.5 25.3999C404.3 25.2999 404.1 25.1999 403.9 24.9999C403.7 24.8999 403.6 24.6999 403.5 24.4999C403.4 24.2999 403.4 24.0999 403.4 23.7999C403.4 23.1999 403.6 22.6999 404 22.3999C404.4 22.0999 405 21.8999 405.7 21.8999C406.1 21.8999 406.5 21.8999 406.8 21.9999C407.1 22.0999 407.4 22.1999 407.6 22.2999L407.2 23.2999C407 23.1999 406.7 23.0999 406.5 22.9999C406.2 22.8999 406 22.8999 405.7 22.8999C405.4 22.8999 405.1 22.9999 404.9 23.0999C404.7 23.1999 404.6 23.3999 404.6 23.6999C404.6 23.7999 404.6 23.9999 404.7 24.0999C404.8 24.1999 404.8 24.2999 405 24.3999C405.1 24.4999 405.2 24.5999 405.4 24.5999C405.5 24.6999 405.7 24.6999 405.9 24.7999C406.2 24.8999 406.5 24.9999 406.7 25.0999C406.9 25.1999 407.2 25.3999 407.3 25.4999C407.5 25.6999 407.6 25.8999 407.7 26.0999C407.8 26.2999 407.8 26.5999 407.8 26.8999C407.8 27.4999 407.6 27.9999 407.2 28.2999C406.8 28.5999 406.2 28.7999 405.3 28.7999C405 28.7999 404.8 28.7999 404.6 28.6999C404.4 28.6999 404.2 28.5999 404 28.5999C403.8 28.4999 403.7 28.4999 403.5 28.3999C403.4 28.2999 403.3 28.2999 403.2 28.2999L403.6 27.2999C403.8 27.3999 404 27.4999 404.3 27.5999C404.7 27.5999 405.1 27.6999 405.5 27.6999Z" fill="white"/>
<path d="M413.5 22V23H411.5V28.6H410.3V23H408.2V22H413.5Z" fill="white"/>
<path d="M414.3 22H415.5V28.6H414.3V22Z" fill="white"/>
<path d="M418.4 22C418.5 22.2 418.7 22.5 418.9 22.9C419.1 23.3 419.2 23.6 419.4 24C419.6 24.4 419.8 24.8 419.9 25.2C420.1 25.6 420.2 26 420.4 26.3C420.5 26 420.7 25.6 420.9 25.2C421.1 24.8 421.2 24.4 421.4 24C421.6 23.6 421.8 23.3 421.9 22.9C422.1 22.6 422.2 22.3 422.4 22H423.5C423.6 22.5 423.6 23 423.7 23.5C423.8 24 423.8 24.6 423.8 25.2C423.8 25.8 423.9 26.3 423.9 26.9C423.9 27.5 424 28 424 28.6H422.8C422.8 27.8 422.7 27 422.7 26.2C422.7 25.4 422.6 24.6 422.5 23.8C422.4 23.9 422.3 24.1 422.2 24.3C422.1 24.5 422 24.7 421.9 25C421.8 25.2 421.7 25.5 421.6 25.7C421.5 26 421.4 26.2 421.3 26.4C421.2 26.6 421.1 26.9 421 27.1C420.9 27.3 420.8 27.5 420.8 27.6H419.9C419.8 27.5 419.8 27.3 419.7 27.1C419.6 26.9 419.5 26.7 419.4 26.4C419.3 26.2 419.2 25.9 419.1 25.7C419 25.4 418.9 25.2 418.8 25C418.7 24.8 418.6 24.5 418.5 24.3C418.4 24.1 418.3 23.9 418.3 23.8C418.2 24.6 418.2 25.4 418.1 26.2C418.1 27 418 27.8 418 28.6H416.8C416.8 28.1 416.9 27.5 416.9 26.9C416.9 26.3 417 25.7 417 25.2C417 24.6 417.1 24.1 417.1 23.5C417.2 23 417.2 22.5 417.3 22H418.4Z" fill="white"/>
<path d="M425.2 28.6V22H429.4V23H426.4V24.6H429.1V25.6H426.4V27.6H429.7V28.6H425.2Z" fill="white"/>
<path d="M435.1 28.6C434.9 28.2 434.6 27.9 434.4 27.4C434.1 27 433.9 26.6 433.6 26.1C433.3 25.7 433 25.3 432.7 24.9C432.4 24.5 432.1 24.1 431.9 23.8V28.5H430.7V22H431.7C432 22.3 432.2 22.6 432.5 22.9C432.8 23.3 433.1 23.6 433.4 24C433.7 24.4 434 24.8 434.3 25.2C434.6 25.6 434.8 26 435 26.3V22H436.2V28.6H435.1Z" fill="white"/>
<path d="M442.1 22V23H440.1V28.6H438.9V23H436.9V22H442.1Z" fill="white"/>
<path d="M443.7 25.3C443.7 25.7 443.7 26 443.8 26.3C443.9 26.6 444 26.8 444.2 27.1C444.4 27.3 444.6 27.5001 444.8 27.6C445 27.7 445.3 27.8 445.6 27.8C445.9 27.8 446.2 27.7 446.4 27.6C446.6 27.5001 446.8 27.3 447 27.1C447.2 26.9001 447.3 26.6 447.4 26.3C447.5 26 447.5 25.7 447.5 25.3C447.5 24.9 447.5 24.6 447.4 24.3C447.3 24 447.2 23.8 447 23.5C446.8 23.3 446.6 23.1 446.4 23C446.2 22.9 445.9 22.8 445.6 22.8C445.3 22.8 445 22.9 444.8 23C444.6 23.1 444.4 23.3 444.2 23.5C444 23.7 443.9 24 443.8 24.3C443.7 24.6 443.7 24.9 443.7 25.3ZM448.8 25.3C448.8 25.9 448.7 26.4 448.5 26.8C448.3 27.2 448.1 27.6 447.8 27.9C447.5 28.2 447.2 28.4001 446.8 28.6C446.4 28.7 446 28.8 445.6 28.8C445.2 28.8 444.8 28.7 444.4 28.6C444 28.5001 443.7 28.2 443.4 27.9C443.1 27.6 442.9 27.2 442.7 26.8C442.5 26.4 442.4 25.9 442.4 25.3C442.4 24.7 442.5 24.2 442.7 23.8C442.9 23.4 443.1 23.0001 443.4 22.7001C443.7 22.4001 444 22.2 444.4 22C444.8 21.9 445.2 21.8 445.6 21.8C446 21.8 446.4 21.9 446.8 22C447.2 22.1 447.5 22.4001 447.8 22.7001C448.1 23.0001 448.3 23.4 448.5 23.8C448.7 24.2 448.8 24.7 448.8 25.3Z" fill="white"/>
<path d="M451.5 27.6999C451.9 27.6999 452.2 27.5999 452.4 27.4999C452.6 27.3999 452.7 27.0999 452.7 26.8999C452.7 26.6999 452.7 26.5999 452.6 26.4999C452.5 26.3999 452.4 26.2999 452.3 26.1999C452.2 26.0999 452 25.9999 451.8 25.8999C451.6 25.7999 451.4 25.6999 451.2 25.6999C451 25.5999 450.7 25.4999 450.5 25.3999C450.3 25.2999 450.1 25.1999 449.9 24.9999C449.7 24.8999 449.6 24.6999 449.5 24.4999C449.4 24.2999 449.4 24.0999 449.4 23.7999C449.4 23.1999 449.6 22.6999 450 22.3999C450.4 22.0999 451 21.8999 451.7 21.8999C452.1 21.8999 452.5 21.8999 452.8 21.9999C453.1 22.0999 453.4 22.1999 453.6 22.2999L453.2 23.2999C453 23.1999 452.7 23.0999 452.5 22.9999C452.2 22.8999 452 22.8999 451.7 22.8999C451.4 22.8999 451.1 22.9999 450.9 23.0999C450.7 23.1999 450.6 23.3999 450.6 23.6999C450.6 23.7999 450.6 23.9999 450.7 24.0999C450.8 24.1999 450.8 24.2999 451 24.3999C451.1 24.4999 451.2 24.5999 451.4 24.5999C451.5 24.6999 451.7 24.6999 451.9 24.7999C452.2 24.8999 452.5 24.9999 452.7 25.0999C452.9 25.1999 453.2 25.3999 453.3 25.4999C453.5 25.6999 453.6 25.8999 453.7 26.0999C453.8 26.2999 453.8 26.5999 453.8 26.8999C453.8 27.4999 453.6 27.9999 453.2 28.2999C452.8 28.5999 452.2 28.7999 451.3 28.7999C451 28.7999 450.8 28.7999 450.5 28.6999C450.3 28.6999 450.1 28.5999 449.9 28.5999C449.7 28.4999 449.6 28.4999 449.4 28.3999C449.3 28.2999 449.2 28.2999 449.1 28.2999L449.5 27.2999C449.7 27.3999 449.9 27.4999 450.2 27.5999C450.7 27.5999 451.1 27.6999 451.5 27.6999Z" fill="white"/>
<path d="M360.6 55.7H360V0H360.6V55.7Z" fill="white"/>
<path d="M346.2 35.9C345.4 35.9 344.6 35.7 343.9 35.4V39.8H347.7C349.6 39.8 351.2 38.2 351.2 36.3V33C350.1 34.8 348.2 35.9 346.2 35.9Z" fill="white"/>
<path d="M340 33.5999V25.3999C338.9 26.8999 337.3 28.9999 337 29.4999C337.3 29.9999 338.8 31.9999 340 33.5999Z" fill="white"/>
<path d="M347.7 11.3999H323C321.1 11.3999 319.5 12.9999 319.5 14.8999V36.3999C319.5 38.2999 321.1 39.8999 323 39.8999H340V35.7999H336.9C336.9 35.7999 335.4 33.6999 334.7 32.6999C334 33.6999 332.5 35.7999 332.5 35.7999H327.8C327.8 35.7999 331.8 30.3999 332.4 29.5999C331.8 28.7999 328.1 23.6999 328.1 23.6999H332.8C332.8 23.6999 334.1 25.4999 334.8 26.3999C335.5 25.4999 336.8 23.6999 336.8 23.6999H342.3C342.3 23.6999 342.7 24.4999 342.9 24.6999C343.9 23.8999 345.2 23.3999 346.4 23.3999C348.5 23.3999 350.3 24.4999 351.4 26.2999V14.7999C351.1 12.8999 349.6 11.3999 347.7 11.3999Z" fill="white"/>
<path d="M348.1 29.6001C348.1 28.2001 347.2 27.1001 346 27.1001C344.8 27.1001 343.9 28.2001 343.9 29.6001C343.9 31.0001 344.8 32.1001 346 32.1001C347.1 32.1001 348.1 31.0001 348.1 29.6001Z" fill="white"/>
<path d="M340.2 47.1H330.5V46H340.2V47.1Z" fill="#FDC60A"/>
</g>
<defs>
<clipPath id="clip0">
<rect width="460" height="55.7" fill="white"/>
</clipPath>
</defs>
</svg>
