<svg id="Camada_1" data-name="Camada 1" xmlns="http://www.w3.org/2000/svg" viewBox="0 0 314 71"><defs><style>.cls-1{fill:#0065af;fill-rule:evenodd;}</style></defs><path class="cls-1" d="M80.65,39.84l-1.82.32.47-3.65-.47-.71.47-4.13L84,33.57l-3.33,6.27Zm7.46,10.95h0A26.42,26.42,0,0,0,93.19,37h0l-3.65-1.27-1.75,6L82,50.79ZM86,41.35h0l2.54-6-3.65-1.51-3.41,9.6-2.38,2-3,5.32h3l4.6-7.46,2.3-2ZM78.11,22.78h0l14,3.81h0C90.73,20,82.24,7.31,66.29,7.31c-16.58,0-27.61,13.57-27.61,26.42a27.62,27.62,0,0,0,5.4,17.14c1.74-4,5.07-12.06,5.07-12.06h0L50.58,38l2.07-5.72,1.19-.55L49.15,46.11l-3.33,4.68h1.43l5.63-6.74,2.7-10.48,1,1.43h0c-.39,4.84-.24,3.65-.55,6.35h0l-6.75,9.44H50.9l6.59-5,.39.16-2.46,4.84h7.3l11.19-7.46,3.41-12.45,8.25-.4L82.4,28.42l-18.09-3h0c-4-4.2-4.13-4.44-4.13-4.44h0l4.76.4-3.41-3.18V14.93l4.44.79,12.14,7.06Zm-3.73,28h-3.8L77.64,42l.71,1.35-4,7.46Zm-8.25,11a26.67,26.67,0,0,1-20.94-9.68H87c-4.84,6.27-13.17,9.68-20.87,9.68Zm.16-52.68c-15.55,0-25.7,12.77-25.7,24.67a24.15,24.15,0,0,0,3.49,13.49C46.38,41,51,28.73,51,28.73a12.52,12.52,0,0,1,2.14-.95h0l3.1-7.85,2-1,2.46-5.24,5.39.87,11,6.11,12.3,3.41h0c-3.17-8.09-12.14-15-23-15Z"/><path class="cls-1" d="M265.21,51.87V50.69h.24a2.39,2.39,0,0,0,1.42-.4c.32-.27.51-.55.51-2h0V28.87h0a3.63,3.63,0,0,0-.59-2.37,2.26,2.26,0,0,0-1.46-.51h-.71V24.8l7.58-.59V48.32h0c0,1.3.2,1.7.52,2a3.09,3.09,0,0,0,1.78.4h.31v1.18Zm-24-21.42a3,3,0,1,1,3-3,3,3,0,0,1-3,3Zm16.72,21.42s0-3-.08-3c-.32,1.54-2.69,3.56-5.34,3.56-4.15,0-5.45-2.93-5.45-4.79,0-4.38,4.39-5.84,10.43-7h0V37.49h0c0-2.14-.91-3.4-3.71-3.4-1.9,0-3.52,1.14-3.76,1.82V36a1.39,1.39,0,0,1,1.15-.48,2.1,2.1,0,0,1,2.33,2.18,2.55,2.55,0,0,1-2.65,2.25,2.66,2.66,0,0,1-2.76-2.77c0-2.61,3-4.39,7-4.39,3.48,0,7.27,1,7.27,6.41h0v9.09h0c0,1.34.2,1.77.52,2a2.13,2.13,0,0,0,1.34.4h.4v1.18h-6.64Zm-21.5,0V50.69H237a1.71,1.71,0,0,0,1.54-.56,5.84,5.84,0,0,0,.36-2.8h0V37.41h0c0-.79.08-1.9-.6-2.45a2.9,2.9,0,0,0-1.85-.4h-.4V33.34h7.71v14h0a5.51,5.51,0,0,0,.35,2.8,1.66,1.66,0,0,0,1.51.56h.75v1.18Zm-1-1.78h0a13.45,13.45,0,0,0,.67-5.09h-1.46c0,1.42,0,3.55-.71,4.62a1.43,1.43,0,0,1-1.27.71c-1.38,0-1.54-1.22-1.54-2.49h0V34.56h3.64V33.34H231V24.8H229.8c0,2.81-2.29,8.54-6.6,8.54h-.32v1.22h3.32V47.25h0c0,2.29.67,5.18,4.67,5.18,2.25,0,3.75-.68,4.54-2.34Zm-18.93,1.78V38.08h0c0-2.73-1.3-2.92-2.37-2.92a2.68,2.68,0,0,0-2.21,1.38,8.65,8.65,0,0,0-.79,4h0v6.84h0c0,1.58-.08,2.37.27,2.76s.75.56,1.78.56h.55v1.18H203.64V50.69h.59a2.22,2.22,0,0,0,1.74-.56c.35-.39.27-1.18.27-2.76h0V37.84h0a5.91,5.91,0,0,0-.31-2.76,1.76,1.76,0,0,0-1.54-.56h-.75V33.34h7l.08,2.88h0A5.37,5.37,0,0,1,216,32.78c4.26,0,5.29,2.34,5.29,6.21h0v8.42h0c0,1.54,0,2.21.32,2.72a1.75,1.75,0,0,0,1.54.56h.75v1.18ZM191,42a19.78,19.78,0,0,0,.28,4.19c.39,2.25,1.34,4.63,4,4.63a5.44,5.44,0,0,0,5.41-5.26h1.54a7.47,7.47,0,0,1-7.62,6.88c-5.93,0-8.86-4.19-8.86-9.84,0-5.85,3.84-9.81,8.7-9.81,5.77,0,8,4.19,8,9.21H191Zm-13.08,9.88L177.83,49h0a5.48,5.48,0,0,1-5.18,3.44c-5.85,0-7.39-5.34-7.39-9.84s2.69-9.81,8-9.81c2.65,0,3.72,1.07,4.11,1.86h0V28.87h0c0-1,0-1.78-.59-2.37A2.42,2.42,0,0,0,175,26h-.35V24.8l7.59-.59V48.32h0c0,1.3.19,1.7.51,2a3.05,3.05,0,0,0,1.74.4H185v1.18Zm-20.55,0L157.28,49h0s0,.12,0,0a5.61,5.61,0,0,1-5.18,3.44c-4.46,0-5.45-2.61-5.45-6h0v-8h0c0-2.34-.08-3.2-.24-3.44s-.32-.44-1.34-.44h-.28V33.34h6.72V46.89h0c0,3,1.62,3,2.41,3,1.34,0,2.41-1.19,2.81-2.77a12.39,12.39,0,0,0,.23-3h0V38.4h0c0-1.62,0-3-.31-3.36s-.75-.52-2-.52h-.39V33.34h7.5V47.41h0a5.33,5.33,0,0,0,.44,2.72,1.57,1.57,0,0,0,1.46.56h.71v1.18h-7Zm-16-14.42a2.06,2.06,0,0,1-2.21-1.78,2.2,2.2,0,0,1,.2-1h0c-1.9,1.58-2.34,7.59-2.34,9.92h0v2.85h0a5.49,5.49,0,0,0,.36,2.72c.36.52,1.26.56,1.78.56h1.78v1.18H128.43V50.69h1.18c1.27,0,1.9-.2,2.22-.71a6.73,6.73,0,0,0,.35-2.61h0V40.14h0a18.1,18.1,0,0,0-.35-4.79c-.32-.67-.79-.83-1.86-.83h-.44V33.34h6.72l.2,4.74h0c.2-2.29,1.54-5.3,4.62-5.3,1.66,0,2.69.79,2.69,2.34a2.28,2.28,0,0,1-2.41,2.33Zm-23,2.69h0c5.61,0,10.32-2.18,10.32-7.63,0-5.73-4.79-7.71-10.32-7.71H107.52V26h.83a5.11,5.11,0,0,1,2.18.27c.63.32.83,1.19.83,2.45h0V48.2h0a2.52,2.52,0,0,1-.6,2,3.64,3.64,0,0,1-2.13.48h-1.11v1.18h12.53V50.69h-1a2.9,2.9,0,0,1-2.13-.56,2.78,2.78,0,0,1-.48-1.93h0V40.14ZM257.5,41.8c-3.51.67-5.45,1.58-5.45,5.17,0,2.1,1.07,3.16,2.25,3.16a2.65,2.65,0,0,0,2.61-1.7,9.2,9.2,0,0,0,.59-3.67h0v-3Zm-63.11-8c-3.24,0-3.28,5.06-3.36,6.92h6.48c0-2-.12-6.92-3.12-6.92Zm-17,6.72c0-2.29-.31-6.2-3.28-6.2-3.35,0-3.39,5.61-3.39,8.26,0,2.29.15,7.7,3.28,7.7a2.89,2.89,0,0,0,2.64-1.86,9.94,9.94,0,0,0,.75-4.07h0V40.53ZM118.35,26h0c4.39,0,5.18,3.32,5.18,6.52s-.79,6.32-5.18,6.32h-1.9V26Z"/></svg>