<svg id="Camada_1" data-name="Camada 1" xmlns="http://www.w3.org/2000/svg" viewBox="0 0 206.3 167.2"><path d="M73,91.18,58.39,108.39l-12.53-11v21.26H41.22V87.08l17,14.89,4.34-5.26c2.47-3,4.94-6,7.39-9A1.31,1.31,0,0,1,71,87.19c2.24,0,4.48,0,6.77,0v31.46H73.22V91.26Z"/><path d="M161.58,107l8,11.77c-.9,0-1.66,0-2.42,0-1,0-2.17.26-3-.15s-1.16-1.53-1.71-2.34q-2.73-4.07-5.44-8.14a1.14,1.14,0,0,0-1.1-.6c-2.14,0-4.27,0-6.41,0h-.84v11.17H144V87.08h.84c4.38,0,8.75,0,13.13,0a15.45,15.45,0,0,1,6.19,1.09c3.73,1.61,5.38,4.59,5.47,8.52.12,4.82-2.08,8-6.59,9.7Zm-12.86-3.37a3.62,3.62,0,0,0,.4,0c2.92,0,5.84.05,8.75,0a10,10,0,0,0,3-.57,5.62,5.62,0,0,0,3.84-5.57,5.52,5.52,0,0,0-3.6-5.63,10.63,10.63,0,0,0-3.3-.65c-2.79-.08-5.58,0-8.38,0-.24,0-.48,0-.72,0Z"/><path d="M99.88,87.23h25.19c-.27.35-.48.64-.71.91-.9,1.09-1.83,2.15-2.7,3.25a1.28,1.28,0,0,1-1.14.53c-5,0-10,0-15,0h-.94v8.57h11.35v4.74H104.56V114h20.67v4.65H99.88Z"/><path d="M192.53,118.68h-4.78V87.23l4.78,1.07Z"/><path d="M14.37,87.22l4.8,1.08v30.38h-4.8Z"/><path d="M89.22,153.58H87.45V138.65h8.42a6.77,6.77,0,0,1,1.19.13,4.35,4.35,0,0,1,2.69,6.69,4.21,4.21,0,0,1-3.81,1.72c-2.21,0-4.42,0-6.72,0Zm0-8.15c1.56,0,3.08,0,4.61,0a22.57,22.57,0,0,0,2.85-.12,2.1,2.1,0,0,0,1.92-2.38c0-1.33-.67-2.34-1.9-2.39-2.48-.11-5,0-7.48,0Z"/><path d="M126.22,153.6l2.44-5.14c1.47-3.08,3.19-6.66,4.61-9.76l1.93,0c2.13,4.63,4.55,9.78,6.71,14.39.06.13.11.27.22.53l-2,0c-.66-1.33-1.55-3.21-2.16-4.56a5.27,5.27,0,0,0-.29-.6c-2,0-5.13,0-7.11,0a5.6,5.6,0,0,0-.28.55c-.56,1.29-1.51,3.28-2.06,4.58Zm10.68-7-2.66-5.81-2.74,5.81Z"/><path d="M65.08,141.28l-1.22,1.17c-.93-.56-1.77-1.17-2.68-1.61A6.86,6.86,0,0,0,53,142.22a6,6,0,0,0,3.42,9.72c2.79.61,5-.05,7.64-2.35l1.19,1.32a8.75,8.75,0,0,1-5.75,2.93,8.9,8.9,0,0,1-7.37-2.11A7.42,7.42,0,0,1,50,144a7.16,7.16,0,0,1,5.77-5.43A9.73,9.73,0,0,1,65.08,141.28Z"/><path d="M67.75,153.6l4.32-9.09c.86-1.79,1.72-3.57,2.55-5.37a.72.72,0,0,1,.87-.5c.47.1,1.06-.31,1.39.4q3.32,7.14,6.66,14.26a1.5,1.5,0,0,1,.06.3,11.81,11.81,0,0,1-1.58,0,.9.9,0,0,1-.55-.47q-1-2.06-2-4.14a.74.74,0,0,0-.79-.51c-2,0-4,0-6,0a.73.73,0,0,0-.79.51c-.57,1.29-1.19,2.55-1.73,3.85-.25.59-.55.9-1.22.79A8.88,8.88,0,0,0,67.75,153.6Zm8-12.77L73,146.64h5.4Z"/><path d="M116.94,140.43h-5.42V138.7h12.64v1.68h-5.39v13.18h-1.83Z"/><path d="M146,153.56V138.69h1.77v13.12h9.35v1.75Z"/><path d="M105.06,138.67h1.65v14.91h-1.65Z"/><path d="M144.73,13.82H121.24l-6.7,14.32L99,32.75,75.64,9.37,41.22,39.1V63H169.11ZM128.61,62.31,127,60.65l26.88-26.9,1.28,2.6-26,26Zm-4.09-4.09,27.7-27.73,1.29,2.62-27,27.06Zm-.49-.49L122.1,55.8l28.52-28.53,1.28,2.57Zm-2.42-2.42-2-2L149,24l1.3,2.63Zm-2.46-2.46-1.94-1.94,30.17-30.18,1.29,2.6Zm-2.43-2.43-2-2,31-31,1.31,2.65Zm-6.82-6.81L139,14.51h4L111.89,45.6Zm-.49-.49-2-2,26.62-26.63H138Zm-2.47-2.47-1.87-1.88,24.25-24.26h3.75ZM115.82,27,119,20.21l5.7-5.7h3.63ZM104.57,38.28l-1.81-1.81,5.84-5.85,5.17-1.53ZM155.45,37l1.31,2.66L134.13,62.31h-4Zm1.64,3.31,1.27,2.57L138.94,62.31h-3.83Zm1.59,3.22L160,46.12,143.79,62.31h-3.87Zm1.61,3.24,1.3,2.63-12.9,12.91h-3.93Zm1.63,3.28,1.28,2.6-9.65,9.66h-3.88Zm1.61,3.25,1.29,2.62-6.38,6.39h-3.91Zm1.62,3.28,1.27,2.56-3.16,3.17h-3.84Zm1.6,3.21L168,62.31h-3.75Zm-21.34-43L114.24,48l-1.86-1.87,31.56-31.57h.35Zm-23.73-2.25h2l-3.86,3.85ZM107.22,31l-5,4.94L99.59,33.3ZM41.91,53.14v-4L55.06,62.31h-4Zm8.19,9.17h-4l-4.24-4.23v-4ZM41.91,48.18V44.46L59.76,62.31H56Zm0-4.7v-4l22.8,22.8h-4ZM42.38,39l2.09-1.8,25.12,25.1H65.7ZM45,36.75l2.1-1.82L74.5,62.31H70.57Zm2.63-2.27,2.07-1.79L79.33,62.31H75.48Zm2.59-2.24,2.1-1.81L84.21,62.31h-3.9ZM52.85,30l2.07-1.79L89.07,62.31H85.2Zm2.6-2.25,2.13-1.84L94,62.31h-4Zm2.66-2.29,2-1.78L98.83,62.31H95Zm2.57-2.23,2.09-1.8,40.92,40.91H99.81ZM63.29,21l2.1-1.81,43.2,43.17h-3.93Zm2.63-2.27L68,16.88l45.45,45.43h-3.88Zm2.61-2.25,2.1-1.82,47.72,47.7h-3.92Zm2.63-2.27,2.06-1.78,50,49.93h-3.84ZM41.91,59.06l3.25,3.25H41.91Zm82.23,3.25L73.74,11.93l1.87-1.62L98.28,33h0l29.34,29.34Z"/></svg>