<?xml version="1.0" encoding="utf-8"?>
<!-- Generator: Adobe Illustrator 24.1.2, SVG Export Plug-In . SVG Version: 6.00 Build 0)  -->
<svg version="1.1" id="Camada_1" xmlns="http://www.w3.org/2000/svg" xmlns:xlink="http://www.w3.org/1999/xlink" x="0px" y="0px"
	 viewBox="0 0 211.5 71" style="enable-background:new 0 0 211.5 71;" xml:space="preserve">
<style type="text/css">
	.st0{fill:url(#SVGID_1_);}
	.st1{fill:#1D1D1B;}
	.st2{fill:url(#SVGID_2_);}
</style>
<g>
	<g>
		<linearGradient id="SVGID_1_" gradientUnits="userSpaceOnUse" x1="171.9276" y1="27.089" x2="203.1025" y2="27.089">
			<stop  offset="0" style="stop-color:#1DAAFB"/>
			<stop  offset="1" style="stop-color:#106CC9"/>
		</linearGradient>
		<path class="st0" d="M203.1,13.9h-9.2L178,27.7v-8.9l-6.1,5.3v15.6c0,0.4,0.5,0.7,0.9,0.4L203.1,13.9z"/>
	</g>
	<g>
		<path class="st1" d="M120.2,29.2L120.2,29.2c1.7,0,3,1.3,3,2.9v0c0,1.6-1.3,2.9-2.9,2.9h-0.1c-1.6,0-2.9-1.3-2.9-2.9v0
			C117.3,30.5,118.6,29.2,120.2,29.2z"/>
		<rect x="117.8" y="38.1" class="st1" width="4.9" height="19.6"/>
	</g>
	<path class="st1" d="M158.7,56.1c0-0.1-0.1-0.1-0.2-0.1c-0.5,0.6-1.3,1.1-2.2,1.5c-1.1,0.5-2.3,0.8-3.6,0.8c-0.8,0-1.6-0.1-2.4-0.4
		c-0.8-0.3-1.5-0.6-2.2-1.1c-0.7-0.5-1.2-1.2-1.6-2c-0.4-0.8-0.6-1.8-0.6-2.8c0-1.1,0.2-2.1,0.6-3c0.4-0.9,1-1.6,1.8-2.2
		c0.8-0.6,1.7-1.1,2.7-1.4c1.1-0.3,2.2-0.5,3.5-0.5c0.4,0,0.8,0,1.3,0c0.5,0,0.9,0,1.4,0.1c0.5,0,1,0.1,1.5,0.1v-0.5
		c0-1-0.4-1.7-1.2-2.3c-0.8-0.6-1.8-0.8-3-0.8c-1.4,0-2.5,0.2-3.3,0.5c-0.8,0.4-1.6,0.8-2.2,1.2l-2.3-3.3c0.4-0.3,0.8-0.6,1.3-0.9
		c0.5-0.3,1.1-0.6,1.8-0.8c0.7-0.2,1.4-0.4,2.3-0.6c0.9-0.2,1.9-0.2,3.1-0.2c1.3,0,2.4,0.2,3.4,0.5c1,0.3,1.9,0.8,2.6,1.5
		c0.7,0.6,1.3,1.4,1.7,2.3c0.4,0.9,0.6,1.8,0.6,2.9v13.1h-4.6L158.7,56.1z M158.7,48.8c-0.5,0-1-0.1-1.5-0.1c-0.4,0-0.8,0-1.2-0.1
		c-0.4,0-0.8,0-1.1,0c-1.6,0-2.7,0.3-3.3,0.9c-0.6,0.6-1,1.3-1,2.1c0,0.8,0.3,1.5,0.9,2c0.7,0.6,1.8,0.8,3.3,0.7
		c1-0.2,1.8-0.5,2.4-1.1c0.4-0.3,0.8-0.7,1-1.2c0.3-0.4,0.4-0.9,0.4-1.4L158.7,48.8z"/>
	<path class="st1" d="M13.1,29.8h5.3l13.5,19.8V29.8h5.1v27.8h-5.2l-13.6-20v20h-5.1V29.8z"/>
	<path class="st1" d="M59.5,54.8c-0.1,0.1-0.3,0.3-0.7,0.7c-0.4,0.4-0.9,0.8-1.6,1.2c-0.7,0.4-1.6,0.8-2.7,1.1
		c-1.1,0.3-2.4,0.5-3.9,0.5c-1.6,0-3-0.3-4.3-0.8C45,57,43.9,56.3,43,55.4c-0.9-0.9-1.6-2.1-2.1-3.4c-0.5-1.3-0.7-2.8-0.7-4.3
		c0-1.4,0.2-2.8,0.7-4c0.5-1.2,1.2-2.3,2-3.2c0.9-0.9,1.9-1.6,3.1-2.2c1.2-0.5,2.6-0.8,4-0.8c1.8,0,3.3,0.3,4.5,1
		c1.2,0.7,2.2,1.5,3,2.6c0.8,1.1,1.3,2.3,1.6,3.6c0.3,1.3,0.5,2.7,0.5,4.1v0.7l-14.6,0c0,0.7,0.2,1.4,0.5,2c0.3,0.6,0.7,1.1,1.3,1.5
		c0.5,0.4,1.1,0.7,1.8,1c0.7,0.2,1.3,0.3,1.9,0.3c0.9,0,1.8-0.1,2.5-0.3c0.7-0.2,1.3-0.4,1.8-0.6c0.5-0.2,0.9-0.5,1.2-0.8
		c0.3-0.3,0.6-0.5,0.7-0.6L59.5,54.8z M54.7,45.8c0-0.5-0.1-1-0.3-1.5c-0.2-0.5-0.5-1-0.9-1.4c-0.4-0.4-0.9-0.7-1.4-1
		c-0.6-0.3-1.3-0.4-2-0.4c-0.8,0-1.5,0.1-2.1,0.4c-0.6,0.3-1.1,0.6-1.6,1c-0.4,0.4-0.7,0.9-1,1.4c-0.2,0.5-0.3,1-0.3,1.5H54.7z"/>
	<path class="st1" d="M62.8,29.8h4.9v27.8h-4.9V29.8z"/>
	<path class="st1" d="M70.8,47.9c0-1.4,0.3-2.8,0.8-4c0.5-1.3,1.2-2.4,2.1-3.3c0.9-0.9,2-1.7,3.3-2.3c1.3-0.6,2.7-0.8,4.3-0.8
		c1.6,0,3,0.3,4.3,0.8c1.3,0.6,2.4,1.3,3.3,2.3c0.9,0.9,1.6,2.1,2.1,3.3c0.5,1.3,0.8,2.6,0.8,4c0,1.4-0.3,2.8-0.8,4
		c-0.5,1.3-1.2,2.4-2.1,3.3c-0.9,1-2,1.7-3.3,2.3c-1.3,0.6-2.7,0.8-4.3,0.8c-1.6,0-3-0.3-4.3-0.8c-1.3-0.6-2.4-1.3-3.3-2.3
		c-0.9-1-1.6-2.1-2.1-3.3C71.1,50.6,70.8,49.3,70.8,47.9z M81.3,54.1c0.9,0,1.8-0.2,2.5-0.6c0.7-0.4,1.3-0.9,1.7-1.5
		c0.5-0.6,0.8-1.3,1-2c0.2-0.7,0.3-1.4,0.3-2.2c0-0.7-0.1-1.4-0.3-2.1c-0.2-0.7-0.6-1.4-1-2c-0.5-0.6-1-1.1-1.7-1.5
		c-0.7-0.4-1.5-0.6-2.5-0.6c-0.9,0-1.8,0.2-2.5,0.6c-0.7,0.4-1.3,0.9-1.7,1.5c-0.5,0.6-0.8,1.3-1,2c-0.2,0.7-0.3,1.5-0.3,2.1
		c0,0.7,0.1,1.4,0.3,2.2c0.2,0.7,0.6,1.4,1,2c0.5,0.6,1,1.1,1.7,1.5C79.6,53.9,80.4,54.1,81.3,54.1z"/>
	<path class="st1" d="M98.4,60.8c0.8,0.5,1.6,0.9,2.5,1.1c0.9,0.2,2,0.4,3.2,0.4c1.3,0,2.4-0.4,3.2-1.2c0.9-0.8,1.3-1.9,1.3-3.3
		l0-2.1c-0.7,0.6-1.4,1-2.2,1.4c-0.8,0.3-1.8,0.5-3.2,0.5c-1.4,0-2.7-0.2-3.8-0.7c-1.1-0.5-2-1.1-2.8-2c-0.8-0.8-1.4-1.8-1.8-3
		c-0.4-1.2-0.6-2.4-0.6-3.8c0-1.4,0.3-2.8,0.8-4.1c0.5-1.3,1.3-2.4,2.2-3.3c1-0.9,2.1-1.7,3.5-2.2c1.4-0.5,2.9-0.8,4.6-0.8
		c1.7,0,3.3,0.1,4.7,0.4c1.4,0.3,2.6,0.6,3.5,0.9l0,19c0,1.4-0.2,2.6-0.7,3.6c-0.5,1.1-1.1,1.9-2,2.7c-0.8,0.7-1.8,1.3-3,1.6
		c-1.1,0.4-2.4,0.6-3.7,0.6c-1,0-1.9,0-2.7-0.1c-0.8-0.1-1.5-0.2-2.1-0.4c-0.6-0.2-1.2-0.4-1.7-0.6c-0.5-0.3-1-0.5-1.4-0.9
		L98.4,60.8z M108.6,42.4c-0.4-0.1-0.8-0.2-1.2-0.3c-0.4-0.1-1.1-0.1-2-0.1c-1,0-1.9,0.2-2.6,0.5c-0.8,0.3-1.4,0.8-1.9,1.3
		c-0.5,0.6-0.9,1.2-1.2,1.9c-0.3,0.7-0.4,1.5-0.4,2.3c0,1.5,0.4,2.8,1.1,3.8c0.8,1,2,1.5,3.6,1.5c1.5,0,2.6-0.3,3.4-1
		c0.8-0.6,1.1-1.7,1.1-3L108.6,42.4z"/>
	<path class="st1" d="M144,55.1c-0.9,1-2,1.8-3.3,2.3c-1.3,0.6-2.7,0.9-4.4,0.9c-1.7,0-3.2-0.3-4.5-0.8c-1.3-0.5-2.4-1.2-3.3-2.1
		c-0.9-0.9-1.6-2-2-3.3c-0.5-1.3-0.7-2.7-0.7-4.3c0-1.4,0.3-2.8,0.8-4c0.5-1.3,1.2-2.4,2.1-3.3c0.9-0.9,2-1.7,3.3-2.3
		c1.3-0.6,2.7-0.8,4.3-0.8c1.6,0,3,0.3,4.3,0.9c1.3,0.6,2.4,1.3,3.3,2.3l-3.1,3.2c-0.6-0.6-1.2-1.1-2-1.5c-0.8-0.4-1.6-0.5-2.6-0.5
		c-0.9,0-1.8,0.2-2.5,0.5c-0.7,0.3-1.3,0.8-1.7,1.4c-0.5,0.6-0.8,1.2-1,2c-0.2,0.8-0.3,1.5-0.3,2.3c0,0.8,0.1,1.5,0.3,2.2
		c0.2,0.7,0.6,1.4,1,2c0.5,0.6,1,1.1,1.7,1.4c0.7,0.4,1.5,0.5,2.5,0.5c1,0,1.9-0.2,2.7-0.6c0.8-0.4,1.5-0.9,2-1.5L144,55.1z"/>
	<path class="st1" d="M173.1,56.1c-0.2-0.3-0.4-0.6-0.5-0.7c-0.1-0.1-0.2-0.1-0.3-0.2c0.3,0,0.5-0.1,0.7-0.3
		c0.2-0.2,0.3-0.4,0.3-0.7c0-0.2-0.1-0.3-0.2-0.5c-0.1-0.2-0.3-0.3-0.4-0.3c-0.2-0.1-0.5-0.1-0.9-0.1h-1.1c-0.1,0-0.1,0.1-0.1,0.1
		v3.3h0.6v-1.5h0.3c0.2,0,0.3,0,0.4,0.1c0.1,0.1,0.3,0.4,0.6,0.8l0.3,0.5h0.7L173.1,56.1z M171.9,54.9h-0.7v-1h0.6
		c0.3,0,0.5,0,0.6,0.1c0.1,0,0.2,0.1,0.2,0.2c0.1,0.1,0.1,0.2,0.1,0.3c0,0.2-0.1,0.3-0.2,0.4C172.4,54.8,172.2,54.9,171.9,54.9z"/>
	<path class="st1" d="M171.9,52.4c1.5,0,2.6,1.2,2.6,2.6c0,1.5-1.2,2.6-2.6,2.6s-2.6-1.2-2.6-2.6C169.3,53.6,170.5,52.4,171.9,52.4
		 M171.9,51.9c-1.8,0-3.2,1.4-3.2,3.2s1.4,3.2,3.2,3.2s3.2-1.4,3.2-3.2S173.7,51.9,171.9,51.9L171.9,51.9z"/>
	<linearGradient id="SVGID_2_" gradientUnits="userSpaceOnUse" x1="154.2007" y1="16.6974" x2="185.3756" y2="16.6974">
		<stop  offset="0" style="stop-color:#179016"/>
		<stop  offset="1" style="stop-color:#8AE12B"/>
	</linearGradient>
	<path class="st2" d="M154.2,29.8h9.2l15.9-13.7V25l6.1-5.3V4.1c0-0.4-0.5-0.7-0.9-0.4L154.2,29.8z"/>
</g>
</svg>
