<svg width="231" height="50" viewBox="0 0 231 50" fill="none" xmlns="http://www.w3.org/2000/svg">
<path d="M8.30499 12.1068C8.30499 8.68445 9.81084 7.38394 12.2065 7.38394C14.6022 7.38394 16.108 8.68445 16.108 12.1068V37.98C16.108 41.4023 14.6022 42.7028 12.2065 42.7028C9.81084 42.7028 8.30499 41.4023 8.30499 37.98V12.1068ZM0.775771 37.5008C0.775771 45.1669 4.81417 49.5476 12.2065 49.5476C19.5988 49.5476 23.6372 45.1669 23.6372 37.5008V12.586C23.6372 4.91983 19.5988 0.539201 12.2065 0.539201C4.81417 0.539201 0.775771 4.91983 0.775771 12.586V37.5008ZM33.1846 12.4491H39.0026V49H46.5318V1.08678H41.4667C40.3031 4.30381 39.0026 7.11015 33.1846 7.11015V12.4491ZM82.9977 1.08678H71.9777L64.3116 49H71.2248L72.5253 40.3072H81.7657L83.0662 49H90.6639L82.9977 1.08678ZM77.1113 9.57426L80.739 33.8047H73.4836L77.1113 9.57426ZM111.711 12.1068C111.711 8.68445 113.217 7.38394 115.613 7.38394C118.009 7.38394 119.514 8.68445 119.514 12.1068V37.98C119.514 41.4023 118.009 42.7028 115.613 42.7028C113.217 42.7028 111.711 41.4023 111.711 37.98V12.1068ZM104.182 37.5008C104.182 45.1669 108.221 49.5476 115.613 49.5476C123.005 49.5476 127.044 45.1669 127.044 37.5008V12.586C127.044 4.91983 123.005 0.539201 115.613 0.539201C108.221 0.539201 104.182 4.91983 104.182 12.586V37.5008ZM146.447 15.5292C146.447 19.3622 144.736 20.5943 141.93 20.5943H138.987V27.439H141.519C144.942 27.439 146.447 29.0818 146.447 33.5309V37.2955C146.447 41.5392 144.942 42.7028 142.546 42.7028C140.15 42.7028 138.644 41.4023 138.644 37.98V33.5309H131.526V37.5008C131.526 45.1669 135.359 49.5476 142.751 49.5476C150.144 49.5476 153.977 45.1669 153.977 37.5008V33.7362C153.977 28.8764 152.471 25.3172 148.706 23.6744C152.334 22.1686 153.977 18.9516 153.977 13.818V12.586C153.977 4.91983 150.144 0.539201 142.751 0.539201C135.359 0.539201 131.526 4.91983 131.526 12.586V15.187H138.644V12.1068C138.644 8.68445 140.15 7.38394 142.546 7.38394C144.942 7.38394 146.447 8.54755 146.447 12.8597V15.5292ZM159.075 1.08678V49H169.616C177.008 49 180.225 44.1402 180.225 37.0901V12.9966C180.225 5.94655 177.008 1.08678 169.616 1.08678H159.075ZM162.224 46.1252V3.96157H169.547C174.818 3.96157 177.077 7.58929 177.077 12.8597V37.227C177.077 42.4975 174.886 46.1252 169.547 46.1252H162.224ZM188.56 23.2638V3.96157H204.303V1.08678H185.411V49H204.303V46.1252H188.56V26.1385H201.633V23.2638H188.56ZM230.558 46.1252H212.283L230.832 4.03002V1.08678H209.887V3.96157H227.546L208.997 46.1252V49H230.558V46.1252Z" fill="#B08D54"/>
</svg>
