<svg width="478" height="96" viewBox="0 0 478 96" fill="none" xmlns="http://www.w3.org/2000/svg">
<path d="M16.8974 82.9626V95.6775H15.3709V83.1008C15.3709 80.9817 14.4919 79.7839 12.7341 79.7839C10.745 79.7839 9.35727 81.6266 9.35727 84.6211V95.6775H7.83075V83.1008C7.83075 80.9817 6.95184 79.7839 5.19403 79.7839C3.20492 79.7839 1.81717 81.6266 1.81717 84.6211V95.6775H0.290649V78.7704H1.58588L1.63214 81.212C2.37227 79.4614 3.76002 78.4019 5.56409 78.4019C7.46068 78.4019 8.75592 79.3232 9.17224 81.212C9.91237 79.4614 11.3001 78.4019 13.1042 78.4019C15.5096 78.4019 16.8974 79.9221 16.8974 82.9626Z" fill="white"/>
<path d="M26.1028 90.5641V83.792C26.1028 80.3369 27.7681 78.356 30.9136 78.356C34.0592 78.356 35.7245 80.2908 35.7245 83.792V90.5641C35.7245 94.0192 34.0592 96.0001 30.9136 96.0001C27.7681 96.0001 26.1028 94.0652 26.1028 90.5641ZM34.1517 90.7023V83.6999C34.1517 81.2122 33.134 79.7841 30.9136 79.7841C28.6932 79.7841 27.6756 81.2122 27.6756 83.6999V90.7023C27.6756 93.1899 28.6932 94.6181 30.9136 94.6181C33.134 94.6181 34.1517 93.1899 34.1517 90.7023Z" fill="white"/>
<path d="M54.4591 83.2392V95.6316H52.9326V83.4695C52.9326 81.0279 52.0074 79.738 50.1108 79.738C48.0292 79.738 46.549 81.5347 46.549 84.5752V95.6316H45.0224V78.7245H46.3639L46.4102 81.1661C47.1503 79.4155 48.5843 78.356 50.4809 78.356C53.1176 78.402 54.4591 79.9684 54.4591 83.2392Z" fill="white"/>
<path d="M66.6713 80.1067V92.3609C66.6713 94.0193 67.2264 94.6643 68.6141 94.6643C69.1692 94.6643 69.6781 94.6182 70.2794 94.3418V95.7239C69.6781 96.0003 69.1692 96.0463 68.4291 96.0463C66.2087 96.0463 65.1448 94.8486 65.1448 92.453V80.1067H62.8781V78.7707H65.191L65.3761 73.6111H66.6713V78.7707H70.2794V80.1067H66.6713Z" fill="white"/>
<path d="M88.1351 83.8381V87.2471H80.0399V90.7023C80.0399 93.2821 81.1501 94.6181 83.278 94.6181C85.4522 94.6181 86.6086 93.2821 86.6086 90.7023V90.2876H88.1351V90.5641C88.1351 94.0192 86.4236 96.0001 83.3243 96.0001C80.1787 96.0001 78.5134 94.0652 78.5134 90.5641V83.792C78.5134 80.3369 80.1787 78.356 83.3243 78.356C86.4236 78.402 88.1351 80.3369 88.1351 83.8381ZM86.6086 85.8651V83.6999C86.6086 81.1201 85.4522 79.7841 83.278 79.7841C81.1039 79.7841 80.0399 81.1201 80.0399 83.6999V85.8651H86.6086Z" fill="white"/>
<path d="M106.916 83.2391V91.1168C106.916 94.3877 105.436 96.0001 102.845 96.0001C100.902 96.0001 99.3759 94.8944 98.682 93.0056L98.497 95.6776H97.3868V71.8142H98.9133V80.9357C99.6997 79.3233 101.087 78.402 102.892 78.402C105.436 78.402 106.916 79.9683 106.916 83.2391ZM105.389 83.4234C105.389 81.12 104.464 79.784 102.475 79.784C100.394 79.784 98.8671 81.6268 98.8671 84.6212V89.7808C98.8671 92.7753 100.394 94.618 102.475 94.618C104.464 94.618 105.389 93.282 105.389 90.9786V83.4234Z" fill="white"/>
<path d="M122.644 78.6322V80.1524C122.274 79.9682 121.904 79.9221 121.487 79.9221C119.036 79.9221 117.879 81.8109 117.879 85.7267V95.6775H116.353V78.7704H117.648L117.694 81.4884C118.342 79.4154 119.637 78.4019 121.487 78.4019C121.904 78.4019 122.274 78.4479 122.644 78.6322Z" fill="white"/>
<path d="M138.51 95.6778C138.372 95.171 138.325 94.2036 138.279 93.098C137.539 94.9868 136.012 96.0463 133.977 96.0463C131.525 96.0463 130.091 94.48 130.091 91.9463C130.091 89.3664 131.248 87.9383 134.44 86.5102C137.678 85.1281 138.094 84.7596 138.094 83.3775V82.9169C138.094 80.9359 136.984 79.8303 135.134 79.8303C133.283 79.8303 131.942 80.9359 131.942 83.0551V83.4236H130.508V83.1011C130.508 80.0606 132.358 78.4482 135.18 78.4482C138.14 78.4482 139.621 80.1067 139.621 83.1011V91.3474C139.621 93.2362 139.713 94.7104 139.944 95.6778H138.51ZM138.094 89.781V85.8192C137.77 86.4181 136.891 86.8327 134.856 87.708C132.543 88.7215 131.618 89.9192 131.618 91.762C131.618 93.5586 132.589 94.6182 134.301 94.6182C136.614 94.6643 138.094 92.7755 138.094 89.781Z" fill="white"/>
<path d="M148.132 78.7705H149.705L153.452 93.6506L157.199 78.7705H158.679L154.377 95.6776H152.388L148.132 78.7705Z" fill="white"/>
<path d="M166.82 90.5641V83.792C166.82 80.3369 168.486 78.356 171.631 78.356C174.777 78.356 176.442 80.2908 176.442 83.792V90.5641C176.442 94.0192 174.777 96.0001 171.631 96.0001C168.486 96.0001 166.82 94.0652 166.82 90.5641ZM174.869 90.7023V83.6999C174.869 81.2122 173.852 79.7841 171.631 79.7841C169.411 79.7841 168.393 81.2122 168.393 83.6999V90.7023C168.393 93.1899 169.411 94.6181 171.631 94.6181C173.852 94.6181 174.869 93.1899 174.869 90.7023Z" fill="white"/>
<path d="M51.4524 29.9379V61.679H41.7381V31.1357C41.7381 27.1738 40.6742 24.5479 36.7885 24.5479C33.0878 24.5479 30.9599 27.1738 30.9599 32.9784V61.679H21.2457V31.1357C21.2457 26.9896 20.0892 24.5479 16.3885 24.5479C12.6879 24.5479 10.375 27.1738 10.375 32.9784V61.679H0.660706V16.9927H9.03347L9.2185 23.6726C10.8838 18.8355 14.677 16.1174 19.8116 16.1174C24.8538 16.1174 28.3694 18.4208 29.9885 23.0737C31.7463 18.6973 35.447 16.1174 40.3041 16.1174C47.3816 16.1174 51.4524 20.5861 51.4524 29.9379Z" fill="white"/>
<path d="M96.1378 30.0301V48.5956C96.1378 58.0857 92.0671 62.6004 84.8508 62.6004C79.5311 62.6004 75.5529 59.6981 73.8876 54.7688L72.4073 61.7251H65.3298V0.0856934H75.044V21.3693C77.0794 18.0063 80.5025 16.0714 84.8508 16.0714C92.0671 16.1175 96.1378 20.5861 96.1378 30.0301ZM86.4236 31.2279C86.4236 26.8514 85.0821 24.548 81.2889 24.548C77.4957 24.548 74.9978 27.1739 74.9978 32.9785V45.6472C74.9978 51.4519 77.4495 54.0777 81.2889 54.0777C85.1284 54.0777 86.4236 51.6822 86.4236 47.3978V31.2279Z" fill="white"/>
<path d="M136.891 32.1952V39.3358H112.051V48.0427C112.051 56.335 116.029 60.8036 123.43 60.8036C130.832 60.8036 134.81 56.335 134.902 48.5034V48.1348H136.845V48.5034C136.66 57.4867 131.988 62.6003 123.43 62.6003C114.687 62.6003 110.108 57.3024 110.108 47.9966V32.2413C110.108 22.8433 114.687 17.5455 123.43 17.5455C132.266 17.4994 136.891 22.7973 136.891 32.1952ZM134.949 37.5852V32.057C134.949 23.7647 130.97 19.2961 123.476 19.2961C116.075 19.2961 112.097 23.8568 112.097 32.057V37.5852H134.949Z" fill="white"/>
<path d="M162.426 39.7045L149.52 18.4209H151.648L163.582 38.1381L175.61 18.4209H177.645L164.739 39.7045L178.061 61.679H175.933L163.49 41.0865L151.139 61.679H149.011L162.426 39.7045Z" fill="white"/>
<path d="M218.769 30.6289V49.3787C218.769 57.9935 214.698 62.5542 207.296 62.5542C200.867 62.5542 196.148 58.9609 194.113 52.7878V75.3152H192.17V18.4208H193.743L193.835 28.2794C195.593 21.5074 200.45 17.5455 207.25 17.5455C214.698 17.4994 218.769 22.1063 218.769 30.6289ZM216.826 31.0896C216.826 23.3501 213.541 19.2961 206.926 19.2961C199.062 19.2961 194.113 25.4693 194.113 34.8672V45.2326C194.113 54.5384 199.062 60.8036 206.926 60.8036C213.541 60.8036 216.826 56.6575 216.826 49.0102V31.0896Z" fill="white"/>
<path d="M261.095 32.1952V39.3358H236.254V48.0427C236.254 56.335 240.232 60.8036 247.634 60.8036C255.035 60.8036 259.013 56.335 259.106 48.5034V48.1348H261.049V48.5034C260.864 57.4867 256.191 62.6003 247.634 62.6003C238.891 62.6003 234.311 57.3024 234.311 47.9966V32.2413C234.311 22.8433 238.891 17.5455 247.634 17.5455C256.515 17.4994 261.095 22.7973 261.095 32.1952ZM259.152 37.5852V32.057C259.152 23.7647 255.174 19.2961 247.68 19.2961C240.279 19.2961 236.3 23.8568 236.3 32.057V37.5852H259.152Z" fill="white"/>
<path d="M294.031 18.1446V20.1716C292.782 19.6649 291.625 19.4806 290.238 19.4806C282.651 19.4806 278.997 25.1931 278.997 37.1708V61.7252H277.054V18.421H278.627L278.719 28.0954C280.2 20.9548 284.039 17.5457 290.099 17.5457C291.487 17.4997 292.828 17.5918 294.031 18.1446Z" fill="white"/>
<path d="M307.584 1.2373H309.527V10.0364H307.584V1.2373ZM307.584 18.4208H309.527V61.725H307.584V18.4208Z" fill="white"/>
<path d="M352.455 32.1952V39.3358H327.614V48.0427C327.614 56.335 331.593 60.8036 338.994 60.8036C346.395 60.8036 350.373 56.335 350.466 48.5034V48.1348H352.409V48.5034C352.224 57.4867 347.552 62.6003 338.994 62.6003C330.251 62.6003 325.671 57.3024 325.671 47.9966V32.2413C325.671 22.8433 330.251 17.5455 338.994 17.5455C347.875 17.4994 352.455 22.7973 352.455 32.1952ZM350.512 37.5852V32.057C350.512 23.7647 346.534 19.2961 339.04 19.2961C331.639 19.2961 327.661 23.8568 327.661 32.057V37.5852H350.512Z" fill="white"/>
<path d="M394.596 30.6289V61.679H392.653V31.0435C392.653 23.304 389.369 19.25 382.847 19.25C375.26 19.25 370.403 25.4232 370.403 34.8211V61.679H368.46V18.3747H370.126V27.9109C371.976 21.4152 376.741 17.5455 383.309 17.5455C390.618 17.4994 394.596 22.1063 394.596 30.6289Z" fill="white"/>
<path d="M410.509 47.9507V32.1032C410.509 22.7052 415.089 17.4995 423.739 17.4995C432.204 17.4995 436.553 22.4288 436.83 31.4121V31.7807H434.887V31.4121C434.702 23.4884 431.002 19.2501 423.739 19.2501C416.245 19.2501 412.452 23.7187 412.452 31.9189V48.0889C412.452 56.289 416.245 60.7577 423.739 60.7577C431.094 60.7577 434.795 56.3812 434.887 48.3653V47.3978H436.83V48.2731C436.738 57.4407 432.436 62.5082 423.739 62.5082C415.042 62.5082 410.509 57.3947 410.509 47.9507Z" fill="white"/>
<path d="M478 32.1952V39.3358H453.159V48.0427C453.159 56.335 457.137 60.8036 464.539 60.8036C471.94 60.8036 475.918 56.335 476.011 48.5034V48.1348H477.954V48.5034C477.769 57.4867 473.097 62.6003 464.539 62.6003C455.796 62.6003 451.216 57.3024 451.216 47.9966V32.2413C451.216 22.8433 455.796 17.5455 464.539 17.5455C473.42 17.4994 478 22.7973 478 32.1952ZM476.057 37.5852V32.057C476.057 23.7647 472.079 19.2961 464.585 19.2961C457.184 19.2961 453.205 23.8568 453.205 32.057V37.5852H476.057Z" fill="white"/>
</svg>
