<svg width="24" height="132" viewBox="0 0 24 132" fill="none" xmlns="http://www.w3.org/2000/svg">
<line x1="15.5" y1="24" x2="15.5" y2="81" stroke="white"/>
<path d="M7.82 119.13C7.82 120.72 8.72 121.95 10.28 122.58C8.63 122.97 7.82 124.08 7.82 125.76C7.82 127.35 8.72 128.58 10.28 129.21L8.12 129.24L8.12 130.38L23 130.38L23 129.03L13.28 129.03C10.64 129.03 9.02 127.8 9.02 126.06C9.02 124.5 10.07 123.75 11.93 123.75L23 123.75L23 122.4L13.28 122.4C10.64 122.4 9.02 121.17 9.02 119.43C9.02 117.87 10.07 117.12 11.93 117.12L23 117.12L23 115.77L11.81 115.77C9.14 115.77 7.82 117 7.82 119.13ZM7.82 107.825C7.82 109.385 8.63 110.615 10.04 111.305L2 111.305L2 112.655L23 112.655L23 111.665L20.66 111.485C22.34 110.855 23.3 109.535 23.3 107.825C23.3 105.545 21.89 104.255 19.01 104.255L12.08 104.255C9.2 104.255 7.82 105.545 7.82 107.825ZM18.89 105.575C20.93 105.575 22.1 106.385 22.1 108.125C22.1 109.955 20.48 111.305 17.84 111.305L13.28 111.305C10.64 111.305 9.02 109.955 9.02 108.125C9.02 106.385 10.19 105.575 12.23 105.575L18.89 105.575ZM7.82 97.3289C7.82 100.089 9.53 101.529 12.59 101.529L18.53 101.529C21.59 101.529 23.3 100.089 23.3 97.3289C23.3 94.5989 21.59 93.0989 18.53 93.0989L18.29 93.0989L18.29 94.4189L18.65 94.4189C20.93 94.4189 22.1 95.4089 22.1 97.3289C22.1 99.2189 20.93 100.179 18.65 100.179L15.59 100.179L15.59 93.0989L12.59 93.0989C9.53 93.0989 7.82 94.5989 7.82 97.3289ZM14.39 100.179L12.47 100.179C10.19 100.179 9.02 99.2189 9.02 97.3289C9.02 95.4389 10.19 94.4189 12.47 94.4189L14.39 94.4189L14.39 100.179Z" fill="white"/>
</svg>
